<?xml version="1.0" encoding="UTF-8"?>
<svg xmlns="http://www.w3.org/2000/svg" xmlns:xlink="http://www.w3.org/1999/xlink" version="1.2" >
<font id="MitraWeb Bold">
<font-face  font-family="MitraWeb" units-per-em="2048" ascent="1896" descent="-959" font-style="normal" font-weight="700" font-stretch="normal" cap-height="0" x-height="0" underline-position="-75" underline-thickness="50" />
<missing-glyph  horiz-adv-x="496" d="" />
<glyph glyph-name="NULL" d="" />
<glyph glyph-name="CR" unicode="&#xd;" horiz-adv-x="512" d="" />
<glyph glyph-name="space" unicode="&#x20;" horiz-adv-x="328" d="" />
<glyph glyph-name="uni060C" unicode="&#x60c;" horiz-adv-x="655" d="M281 297 C281 388 343 479 466 570 L370 615 C340 590 313 563 288 534 C199 431 154 329 154 230 C154 165 170 110 203 66 C236 22 278 0 328 0 C378 0 418 15 448 46 C478 77 493 115 493 158 C493 201 478 238 448 268 C418 298 381 313 338 313 C317 313 298 308 281 297 L281 297 Z " />
<glyph glyph-name="uni061B" unicode="&#x61b;" horiz-adv-x="655" d="M436 267 C405 298 368 313 326 313 C284 313 247 298 216 268 C185 238 169 201 169 158 C169 115 185 77 216 46 C247 15 283 0 326 0 C369 0 406 16 436 47 C466 78 482 116 482 158 C482 200 467 236 436 267 L436 267 Z M448 604 C478 634 493 671 493 714 C493 757 478 794 447 825 C416 856 385 871 352 871 C319 871 296 866 281 855 L281 859 C281 948 342 1038 464 1127 L368 1174 C225 1051 154 921 154 784 C154 721 170 668 202 624 C234 580 276 559 326 559 C376 559 418 574 448 604 L448 604 Z " />
<glyph glyph-name="uni061F" unicode="&#x61f;" horiz-adv-x="765" d="M578 1140 L664 1358 C580 1385 492 1398 402 1398 C312 1398 236 1374 173 1325 C102 1272 67 1201 67 1111 C67 1021 98 943 161 878 C173 864 230 818 332 741 C395 697 426 657 426 620 C426 583 398 546 342 509 L509 428 C565 481 593 536 593 593 C593 650 562 705 499 759 C471 781 443 802 414 824 C385 846 357 868 328 891 C265 942 234 987 234 1028 C234 1124 294 1172 415 1172 C456 1172 510 1161 578 1140 L578 1140 Z M550 267 C519 298 482 313 440 313 C398 313 361 298 330 268 C299 238 283 201 283 158 C283 115 299 77 330 46 C361 15 397 0 440 0 C483 0 520 16 550 47 C580 78 596 116 596 158 C596 200 581 236 550 267 L550 267 Z " />
<glyph glyph-name="uni0621" unicode="&#x621;" horiz-adv-x="837" d="M598 422 L720 540 C681 613 624 650 552 650 C480 650 404 612 325 537 C286 499 257 468 239 443 C221 418 212 392 212 363 C212 310 239 263 292 224 L229 171 L229 -1 C328 83 496 153 732 210 L780 395 C717 381 622 355 495 317 C464 330 437 347 415 369 C393 391 380 415 377 442 C402 475 435 492 475 492 C510 486 551 463 598 422 L598 422 Z " />
<glyph glyph-name="uni0622" unicode="&#x622;" horiz-adv-x="521" d="M368 1355 L120 1144 C145 1097 167 989 186 820 C211 630 224 431 224 222 C224 142 222 41 218 -81 L348 88 C383 435 400 732 400 981 C400 1105 389 1230 368 1355 L368 1355 Z M530 1530 L530 1624 C429 1565 327 1535 222 1535 C154 1535 84 1549 12 1576 C-21 1495 -39 1427 -41 1370 L34 1370 C38 1382 51 1406 74 1442 C119 1426 167 1418 216 1418 C332 1418 437 1455 530 1530 L530 1530 Z " />
<glyph glyph-name="uni0623" unicode="&#x623;" horiz-adv-x="492" d="M368 1355 L120 1144 C145 1097 167 989 186 820 C211 630 224 431 224 222 C224 142 222 41 218 -81 L348 88 C383 435 400 732 400 981 C400 1105 389 1230 368 1355 L368 1355 Z M309 1594 L382 1667 C357 1710 323 1732 280 1732 C219 1732 157 1691 94 1610 C82 1595 76 1575 77 1550 C77 1525 93 1500 126 1476 L89 1445 L89 1341 C143 1389 242 1431 387 1468 L417 1579 C380 1570 324 1555 248 1532 C229 1539 212 1550 199 1564 C186 1578 178 1592 177 1607 C190 1626 210 1635 239 1635 C268 1635 291 1621 309 1594 L309 1594 Z " />
<glyph glyph-name="uni0624" unicode="&#x624;" horiz-adv-x="784" d="M732 122 C732 266 703 386 645 482 C587 578 508 629 409 636 C335 593 274 524 227 429 C180 334 156 227 156 107 C233 36 348 0 501 0 L615 39 C586 -48 521 -133 420 -218 C316 -311 186 -390 30 -454 C57 -471 87 -487 120 -501 C232 -548 332 -572 419 -572 C628 -341 732 -110 732 122 L732 122 Z M570 244 C549 233 521 227 484 227 C413 227 348 246 289 285 C290 299 292 313 296 328 C312 380 336 412 368 424 C417 422 460 402 499 364 C538 326 561 287 570 244 L570 244 Z M464 969 L537 1042 C512 1085 478 1107 435 1107 C374 1107 312 1066 249 985 C237 970 231 950 232 925 C232 900 248 875 281 851 L244 820 L244 716 C298 764 397 806 542 843 L572 954 C535 945 479 930 403 907 C384 914 367 925 354 939 C341 953 333 967 332 982 C345 1001 365 1010 394 1010 C423 1010 446 996 464 969 L464 969 Z " />
<glyph glyph-name="uni0625" unicode="&#x625;" horiz-adv-x="492" d="M368 1355 L120 1144 C145 1097 167 989 186 820 C211 630 224 431 224 222 C224 142 222 41 218 -81 L348 88 C383 435 400 732 400 981 C400 1105 389 1230 368 1355 L368 1355 Z M353 -311 L426 -238 C401 -195 367 -173 324 -173 C263 -173 201 -214 138 -295 C126 -310 120 -330 121 -355 C121 -380 137 -405 170 -429 L133 -460 L133 -564 C187 -516 286 -474 431 -437 L461 -326 C424 -335 368 -350 292 -373 C273 -366 256 -355 243 -341 C230 -327 222 -313 221 -298 C234 -279 254 -270 283 -270 C312 -270 335 -284 353 -311 L353 -311 Z " />
<glyph glyph-name="uni0626" unicode="&#x626;" horiz-adv-x="1439" d="M1278 619 L1388 887 C1346 906 1293 916 1229 916 C1110 916 1012 859 936 745 C860 631 798 455 747 216 C769 163 861 122 1022 92 C1121 75 1176 44 1188 0 C1126 -32 1026 -65 887 -98 C748 -131 635 -148 546 -148 C337 -148 232 -71 232 84 C232 126 241 181 258 249 C275 317 292 368 311 403 C294 426 280 437 267 437 C254 437 245 436 238 433 C189 350 150 256 119 152 C88 48 73 -28 73 -75 C73 -305 212 -420 490 -420 C696 -420 940 -347 1221 -201 C1256 -132 1287 -7 1315 173 C1294 232 1226 274 1112 299 C998 324 924 356 889 396 C957 566 1046 651 1156 651 C1197 651 1237 640 1278 619 L1278 619 Z M621 854 L694 927 C669 970 635 992 592 992 C531 992 469 951 406 870 C394 855 388 835 389 810 C389 785 405 760 438 736 L401 705 L401 601 C455 649 554 691 699 728 L729 839 C692 830 636 815 560 792 C541 799 524 810 511 824 C498 838 490 852 489 867 C502 886 522 895 551 895 C580 895 603 881 621 854 L621 854 Z " />
<glyph glyph-name="uni0627" unicode="&#x627;" horiz-adv-x="492" d="M368 1355 L120 1144 C145 1097 167 989 186 820 C211 630 224 431 224 222 C224 142 222 41 218 -81 L348 88 C383 435 400 732 400 981 C400 1105 389 1230 368 1355 L368 1355 Z " />
<glyph glyph-name="uni0628" unicode="&#x628;" horiz-adv-x="1585" d="M1388 364 C1309 332 1212 309 1096 295 C980 281 883 274 802 274 L660 274 C368 276 222 347 222 486 C222 555 244 630 287 711 C274 734 256 745 234 745 C229 745 222 744 214 741 C129 589 86 456 86 342 C86 106 251 -12 582 -12 C877 -12 1145 41 1388 146 C1467 263 1516 363 1535 448 C1531 499 1518 558 1496 625 C1474 692 1452 743 1428 777 L1272 576 C1321 527 1360 456 1388 364 L1388 364 Z M722 -507 L893 -358 L728 -207 L558 -354 L722 -507 Z " />
<glyph glyph-name="uni0629" unicode="&#x629;" horiz-adv-x="767" d="M86 96 C152 23 252 -13 385 -13 L391 -13 C424 -13 501 10 623 57 C662 146 689 251 704 370 C693 509 657 610 594 674 C531 738 418 792 257 837 L179 582 L191 580 L242 570 C145 464 93 306 86 96 L86 96 Z M596 283 C539 244 474 224 400 224 C326 224 265 248 218 295 C240 414 279 497 334 542 C499 501 586 415 596 283 L596 283 Z M85 1101 L222 964 L357 1099 L492 964 L630 1101 L492 1239 L357 1104 L222 1239 L85 1101 Z " />
<glyph glyph-name="uni062A" unicode="&#x62a;" horiz-adv-x="1585" d="M1388 364 C1309 332 1212 309 1096 295 C980 281 883 274 802 274 L660 274 C368 276 222 347 222 486 C222 555 244 630 287 711 C274 734 256 745 234 745 C229 745 222 744 214 741 C129 589 86 456 86 342 C86 106 251 -12 582 -12 C877 -12 1145 41 1388 146 C1467 263 1516 363 1535 448 C1531 499 1518 558 1496 625 C1474 692 1452 743 1428 777 L1272 576 C1321 527 1360 456 1388 364 L1388 364 Z M531 943 L668 806 L803 941 L938 806 L1076 943 L938 1081 L803 946 L668 1081 L531 943 Z " />
<glyph glyph-name="uni062B" unicode="&#x62b;" horiz-adv-x="1585" d="M1388 364 C1309 332 1212 309 1096 295 C980 281 883 274 802 274 L660 274 C368 276 222 347 222 486 C222 555 244 630 287 711 C274 734 256 745 234 745 C229 745 222 744 214 741 C129 589 86 456 86 342 C86 106 251 -12 582 -12 C877 -12 1145 41 1388 146 C1467 263 1516 363 1535 448 C1531 499 1518 558 1496 625 C1474 692 1452 743 1428 777 L1272 576 C1321 527 1360 456 1388 364 L1388 364 Z M806 1070 L935 1197 L800 1315 L670 1190 L806 1070 Z M674 830 L804 958 L669 1075 L537 948 L674 830 Z M946 834 L1076 962 L939 1079 L808 952 L946 834 Z " />
<glyph glyph-name="uni062C" unicode="&#x62c;" horiz-adv-x="1300" d="M1189 -504 L1270 -373 C1175 -385 1070 -391 953 -391 C512 -391 291 -270 291 -27 C291 72 328 164 401 247 C434 285 470 318 510 345 C550 372 604 398 671 424 C738 450 807 463 878 463 C949 463 996 461 1020 457 L1176 703 C1100 694 998 689 870 689 C742 689 601 716 448 770 C385 792 342 803 316 803 C290 803 263 781 235 737 C207 693 159 584 90 410 C108 396 131 389 159 389 C182 454 204 498 224 522 C243 540 263 549 283 549 C303 549 340 539 394 521 C448 503 508 490 572 483 L580 483 L580 479 C414 398 285 300 192 185 C99 70 53 -45 53 -158 C53 -309 117 -420 246 -493 C345 -546 460 -573 593 -573 C800 -573 998 -550 1189 -504 L1189 -504 Z M807 -135 L978 14 L813 165 L643 18 L807 -135 Z " />
<glyph glyph-name="uni062D" unicode="&#x62d;" horiz-adv-x="1300" d="M1189 -503 L1270 -372 C1175 -384 1070 -390 953 -390 C512 -390 291 -269 291 -26 C291 73 328 165 401 248 C434 286 470 319 510 346 C550 373 604 399 671 425 C738 451 807 464 878 464 C949 464 996 462 1020 458 L1176 704 C1100 695 998 690 870 690 C742 690 601 717 448 771 C385 793 342 804 316 804 C290 804 263 782 235 738 C207 694 159 585 90 411 C108 397 131 390 159 390 C182 455 204 499 224 523 C243 541 263 550 283 550 C303 550 340 540 394 522 C448 504 508 491 572 484 L580 484 L580 480 C414 399 285 301 192 186 C99 71 53 -44 53 -157 C53 -308 117 -419 246 -492 C345 -545 460 -572 593 -572 C800 -572 998 -549 1189 -503 L1189 -503 Z " />
<glyph glyph-name="uni062E" unicode="&#x62e;" horiz-adv-x="1300" d="M1189 -506 L1270 -375 C1175 -387 1070 -393 953 -393 C512 -393 291 -272 291 -29 C291 70 328 162 401 245 C434 283 470 316 510 343 C550 370 604 396 671 422 C738 448 807 461 878 461 C949 461 996 459 1020 455 L1176 701 C1100 692 998 687 870 687 C742 687 601 714 448 768 C385 790 342 801 316 801 C290 801 263 779 235 735 C207 691 159 582 90 408 C108 394 131 387 159 387 C182 452 204 496 224 520 C243 538 263 547 283 547 C303 547 340 537 394 519 C448 501 508 488 572 481 L580 481 L580 477 C414 396 285 298 192 183 C99 68 53 -47 53 -160 C53 -311 117 -422 246 -495 C345 -548 460 -575 593 -575 C800 -575 998 -552 1189 -506 L1189 -506 Z M659 913 L830 1062 L665 1213 L495 1066 L659 913 Z " />
<glyph glyph-name="uni062F" unicode="&#x62f;" horiz-adv-x="788" d="M728 427 C728 525 690 619 613 709 C536 799 416 876 252 940 L201 636 C262 623 315 607 360 588 C495 532 575 440 602 311 C583 292 544 272 486 253 C430 239 371 232 310 232 C249 232 203 245 173 272 C170 279 169 289 169 304 C169 319 170 327 171 330 C164 337 156 340 146 339 C136 338 129 338 126 338 L124 338 C119 329 108 291 94 224 C80 157 73 95 73 37 C128 -2 204 -22 300 -22 C449 -22 571 14 668 86 C708 247 728 360 728 427 L728 427 Z " />
<glyph glyph-name="uni0630" unicode="&#x630;" horiz-adv-x="788" d="M728 427 C728 525 690 619 613 709 C536 799 416 876 252 940 L201 636 C262 623 315 607 360 588 C495 532 575 440 602 311 C583 292 544 272 486 253 C430 239 371 232 310 232 C249 232 203 245 173 272 C170 279 169 289 169 304 C169 319 170 327 171 330 C164 337 156 340 146 339 C136 338 129 338 126 338 L124 338 C119 329 108 291 94 224 C80 157 73 95 73 37 C128 -2 204 -22 300 -22 C449 -22 571 14 668 86 C708 247 728 360 728 427 L728 427 Z M272 1088 L443 1237 L278 1388 L108 1241 L272 1088 Z " />
<glyph glyph-name="uni0631" unicode="&#x631;" horiz-adv-x="724" d="M546 0 C453 -156 271 -299 0 -428 C64 -479 184 -524 360 -563 C542 -366 650 -148 684 92 C649 253 586 390 495 505 L354 236 C457 154 521 75 546 0 L546 0 Z " />
<glyph glyph-name="uni0632" unicode="&#x632;" horiz-adv-x="724" d="M546 0 C453 -156 271 -299 0 -428 C64 -479 184 -524 360 -563 C542 -366 650 -148 684 92 C649 253 586 390 495 505 L354 236 C457 154 521 75 546 0 L546 0 Z M446 662 L617 811 L452 962 L282 815 L446 662 Z " />
<glyph glyph-name="uni0633" unicode="&#x633;" horiz-adv-x="2147" d="M1302 0 C1354 0 1403 20 1447 60 C1491 100 1518 157 1529 228 L1533 228 C1544 153 1573 95 1619 55 C1658 18 1704 0 1756 0 C1825 0 1902 52 1988 156 C1997 173 2013 210 2036 270 C2059 330 2077 394 2090 462 C2082 511 2065 566 2038 629 C2011 692 1987 734 1966 756 L1816 548 C1879 477 1919 409 1938 342 C1926 325 1902 310 1866 296 C1830 282 1792 274 1752 274 C1648 274 1596 336 1596 460 L1596 497 C1596 508 1597 520 1598 531 C1571 534 1553 535 1544 535 C1535 535 1523 533 1508 529 C1507 449 1487 387 1448 342 C1409 297 1358 274 1296 274 C1234 274 1183 291 1140 324 C1102 357 1052 423 989 523 L885 252 C928 222 968 170 1004 97 C1040 24 1061 -51 1068 -128 C1023 -170 951 -209 854 -245 C757 -281 658 -299 557 -299 C330 -299 216 -222 216 -69 C216 -18 224 30 239 74 C254 118 285 179 330 257 C315 281 295 293 272 293 C206 208 152 116 110 16 C68 -84 47 -169 47 -236 C47 -329 78 -406 139 -466 C216 -537 331 -572 486 -572 C601 -572 716 -550 830 -506 C944 -462 1039 -398 1118 -315 C1125 -296 1138 -243 1154 -156 C1170 -69 1178 2 1178 55 C1209 18 1250 0 1302 0 L1302 0 Z " />
<glyph glyph-name="uni0634" unicode="&#x634;" horiz-adv-x="2147" d="M1302 16 C1354 16 1403 36 1447 76 C1491 116 1518 173 1529 244 L1533 244 C1544 169 1573 111 1619 71 C1658 34 1704 16 1756 16 C1825 16 1902 68 1988 172 C1997 189 2013 226 2036 286 C2059 346 2077 410 2090 478 C2082 527 2065 582 2038 645 C2011 708 1987 750 1966 772 L1816 564 C1879 493 1919 425 1938 358 C1926 341 1902 326 1866 312 C1830 298 1792 290 1752 290 C1648 290 1596 352 1596 476 L1596 513 C1596 524 1597 536 1598 547 C1571 550 1553 551 1544 551 C1535 551 1523 549 1508 545 C1507 465 1487 403 1448 358 C1409 313 1358 290 1296 290 C1234 290 1183 307 1140 340 C1102 373 1052 439 989 539 L885 268 C928 238 968 186 1004 113 C1040 40 1061 -35 1068 -112 C1023 -154 951 -193 854 -229 C757 -265 658 -283 557 -283 C330 -283 216 -206 216 -53 C216 -2 224 46 239 90 C254 134 285 195 330 273 C315 297 295 309 272 309 C206 224 152 132 110 32 C68 -68 47 -153 47 -220 C47 -313 78 -390 139 -450 C216 -521 331 -556 486 -556 C601 -556 716 -534 830 -490 C944 -446 1039 -382 1118 -299 C1125 -280 1138 -227 1154 -140 C1170 -53 1178 18 1178 71 C1209 34 1250 16 1302 16 L1302 16 Z M1556 1051 L1685 1178 L1550 1296 L1420 1171 L1556 1051 Z M1424 811 L1554 939 L1419 1056 L1287 929 L1424 811 Z M1696 815 L1826 943 L1689 1060 L1558 933 L1696 815 Z " />
<glyph glyph-name="uni0635" unicode="&#x635;" horiz-adv-x="2265" d="M2208 460 C2196 531 2165 591 2114 640 C2063 689 2000 713 1925 713 C1741 713 1536 567 1309 274 C1239 274 1186 288 1149 317 C1112 346 1059 414 989 523 L885 252 C928 222 968 170 1004 97 C1040 24 1061 -51 1068 -128 C1023 -170 951 -209 854 -245 C757 -281 658 -299 557 -299 C330 -299 216 -222 216 -69 C216 -18 224 30 239 74 C254 118 285 179 330 257 C315 281 295 293 272 293 C206 208 152 116 110 16 C68 -84 47 -169 47 -236 C47 -329 78 -406 139 -466 C216 -537 331 -572 486 -572 C601 -572 716 -550 830 -506 C944 -462 1039 -398 1118 -315 C1125 -296 1138 -243 1154 -156 C1170 -69 1178 2 1178 57 C1212 19 1295 0 1426 0 C1557 0 1693 36 1833 107 C1999 192 2124 309 2208 460 L2208 460 Z M1980 379 C1902 303 1755 265 1540 265 L1439 265 C1499 351 1562 416 1628 462 C1694 508 1751 531 1801 531 C1902 531 1962 480 1980 379 L1980 379 Z " />
<glyph glyph-name="uni0636" unicode="&#x636;" horiz-adv-x="2265" d="M2208 460 C2196 531 2165 591 2114 640 C2063 689 2000 713 1925 713 C1741 713 1536 567 1309 274 C1239 274 1186 288 1149 317 C1112 346 1059 414 989 523 L885 252 C928 222 968 170 1004 97 C1040 24 1061 -51 1068 -128 C1023 -170 951 -209 854 -245 C757 -281 658 -299 557 -299 C330 -299 216 -222 216 -69 C216 -18 224 30 239 74 C254 118 285 179 330 257 C315 281 295 293 272 293 C206 208 152 116 110 16 C68 -84 47 -169 47 -236 C47 -329 78 -406 139 -466 C216 -537 331 -572 486 -572 C601 -572 716 -550 830 -506 C944 -462 1039 -398 1118 -315 C1125 -296 1138 -243 1154 -156 C1170 -69 1178 2 1178 57 C1212 19 1295 0 1426 0 C1557 0 1693 36 1833 107 C1999 192 2124 309 2208 460 L2208 460 Z M1980 379 C1902 303 1755 265 1540 265 L1439 265 C1499 351 1562 416 1628 462 C1694 508 1751 531 1801 531 C1902 531 1962 480 1980 379 L1980 379 Z M1437 769 L1608 918 L1443 1069 L1273 922 L1437 769 Z " />
<glyph glyph-name="uni0637" unicode="&#x637;" horiz-adv-x="1343" d="M619 1066 C552 1169 504 1265 474 1355 L295 1195 C367 1032 403 725 403 274 C249 274 154 311 118 385 C101 385 88 381 77 372 C114 203 149 98 183 59 C217 20 292 0 409 0 C608 0 786 42 940 124 C1094 206 1209 319 1285 462 C1275 530 1244 589 1193 639 C1140 688 1076 713 1002 713 C855 713 704 627 550 454 C550 784 546 988 539 1066 C550 1061 563 1058 579 1058 C595 1058 608 1061 619 1066 L619 1066 Z M1060 379 C981 303 834 265 619 265 L521 265 C578 349 642 417 713 468 C776 510 832 531 881 531 C982 531 1042 480 1060 379 L1060 379 Z " />
<glyph glyph-name="uni0638" unicode="&#x638;" horiz-adv-x="1343" d="M619 1066 C552 1169 504 1265 474 1355 L295 1195 C367 1032 403 725 403 274 C249 274 154 311 118 385 C101 385 88 381 77 372 C114 203 149 98 183 59 C217 20 292 0 409 0 C608 0 786 42 940 124 C1094 206 1209 319 1285 462 C1275 530 1244 589 1193 639 C1140 688 1076 713 1002 713 C855 713 704 627 550 454 C550 784 546 988 539 1066 C550 1061 563 1058 579 1058 C595 1058 608 1061 619 1066 L619 1066 Z M1060 379 C981 303 834 265 619 265 L521 265 C578 349 642 417 713 468 C776 510 832 531 881 531 C982 531 1042 480 1060 379 L1060 379 Z M913 914 L1084 1063 L919 1214 L749 1067 L913 914 Z " />
<glyph glyph-name="uni0639" unicode="&#x639;" horiz-adv-x="1111" d="M996 -501 L1081 -370 C1031 -383 945 -390 822 -390 C635 -390 494 -359 401 -297 C325 -246 287 -177 287 -90 C287 20 345 110 461 181 C577 252 727 294 910 309 L987 523 C924 509 806 480 633 437 C558 466 508 499 483 536 C458 573 446 625 446 694 C530 735 617 755 706 755 C755 755 816 742 891 715 C822 856 730 926 615 926 C483 926 358 824 240 619 C237 609 236 582 236 538 C236 494 253 447 288 398 C323 349 364 313 413 291 C169 133 47 -37 47 -220 C47 -324 88 -409 169 -474 C250 -539 376 -572 546 -572 C619 -572 705 -564 802 -548 C899 -532 964 -516 996 -501 L996 -501 Z " />
<glyph glyph-name="uni063A" unicode="&#x63a;" horiz-adv-x="1111" d="M996 -501 L1081 -370 C1031 -383 945 -390 822 -390 C635 -390 494 -359 401 -297 C325 -246 287 -177 287 -90 C287 20 345 110 461 181 C577 252 727 294 910 309 L987 523 C924 509 806 480 633 437 C558 466 508 499 483 536 C458 573 446 625 446 694 C530 735 617 755 706 755 C755 755 816 742 891 715 C822 856 730 926 615 926 C483 926 358 824 240 619 C237 609 236 582 236 538 C236 494 253 447 288 398 C323 349 364 313 413 291 C169 133 47 -37 47 -220 C47 -324 88 -409 169 -474 C250 -539 376 -572 546 -572 C619 -572 705 -564 802 -548 C899 -532 964 -516 996 -501 L996 -501 Z M555 1084 L726 1233 L561 1384 L391 1237 L555 1084 Z " />
<glyph glyph-name="uni0640" unicode="&#x640;" horiz-adv-x="439" d="M448 0 C468 0 478 11 478 32 L478 242 C478 263 467 274 446 274 L-8 274 C-29 274 -39 263 -39 242 L-39 32 C-39 11 -29 0 -10 0 L448 0 Z " />
<glyph glyph-name="uni0641" unicode="&#x641;" horiz-adv-x="1472" d="M262 641 C247 665 230 677 209 677 C202 677 196 675 189 670 C109 523 69 398 69 295 C69 192 104 118 174 73 C254 16 402 -12 617 -12 C832 -12 1002 0 1125 25 C1192 38 1277 73 1382 130 C1409 277 1422 415 1422 546 C1422 677 1394 782 1337 862 C1280 942 1201 981 1099 981 C959 887 889 721 889 484 L889 474 C960 429 1047 407 1150 407 C1209 407 1261 419 1308 444 C1309 427 1309 415 1310 406 C1311 397 1311 390 1311 388 C1311 386 1311 381 1310 372 C1309 363 1309 350 1308 334 C1241 294 1033 274 684 274 C495 274 367 286 302 310 C237 334 204 377 204 438 C204 499 223 566 262 641 L262 641 Z M1288 612 C1257 601 1215 596 1160 596 C1105 596 1054 612 1005 643 C1007 707 1027 750 1066 771 C1169 771 1243 718 1288 612 L1288 612 Z M1096 1094 L1267 1243 L1102 1394 L932 1247 L1096 1094 Z " />
<glyph glyph-name="uni0642" unicode="&#x642;" horiz-adv-x="1291" d="M1092 348 C1069 336 1040 330 1005 330 C937 330 873 350 812 390 C812 403 814 417 819 432 C835 482 859 516 891 533 C940 527 983 506 1020 471 C1057 436 1081 395 1092 348 L1092 348 Z M1235 250 C1235 559 1134 722 932 739 C857 698 794 629 746 532 C698 435 674 328 674 210 C754 140 875 105 1036 105 L1118 128 C1126 82 1130 51 1130 34 C1130 17 1130 6 1129 0 C1058 -51 969 -96 861 -133 C750 -174 643 -195 542 -195 C323 -195 214 -105 214 75 C214 113 221 164 236 228 C251 292 268 340 287 373 C274 396 257 407 236 407 C229 407 222 406 214 403 C195 368 178 330 162 290 C98 127 66 -7 66 -111 C66 -215 102 -301 172 -368 C242 -435 344 -468 478 -468 C612 -468 750 -436 895 -373 C1010 -325 1107 -268 1186 -203 C1219 -71 1235 80 1235 250 L1235 250 Z M631 1002 L768 865 L903 1000 L1038 865 L1176 1002 L1038 1140 L903 1005 L768 1140 L631 1002 Z " />
<glyph glyph-name="uni0643" unicode="&#x643;" horiz-adv-x="1331" d="M1137 1355 L957 1195 C1031 1011 1068 717 1068 313 C867 273 683 253 518 253 C353 253 238 279 173 332 L73 55 C154 10 260 -12 392 -12 C524 -12 664 -1 810 21 C956 43 1055 66 1109 90 C1160 171 1195 253 1215 338 C1215 727 1211 970 1203 1066 C1216 1061 1228 1058 1242 1058 C1256 1058 1269 1061 1282 1066 C1231 1141 1183 1237 1137 1355 L1137 1355 Z M779 920 L837 1101 C797 1092 735 1069 650 1030 C565 991 507 959 476 936 L454 759 C496 753 539 739 582 716 C625 693 654 672 668 655 C609 626 534 612 441 612 L392 460 C416 460 443 463 472 468 C588 491 676 527 735 576 L756 751 C743 768 714 789 670 814 C629 841 592 859 559 867 C622 900 695 918 779 920 L779 920 Z " />
<glyph glyph-name="uni0644" unicode="&#x644;" horiz-adv-x="1113" d="M987 1066 C994 1061 1006 1058 1022 1058 C1038 1058 1052 1061 1064 1066 C1055 1079 1033 1117 999 1178 C965 1239 938 1298 918 1355 L741 1195 C804 1039 841 759 852 356 L859 10 C712 -78 570 -122 431 -122 C360 -122 305 -106 266 -72 C227 -38 208 8 208 67 C208 97 213 138 224 188 C235 238 247 277 259 306 C242 325 218 334 189 334 C112 151 73 -6 73 -139 C73 -210 98 -270 149 -320 C200 -370 271 -396 364 -396 C457 -396 569 -365 701 -304 C782 -267 853 -222 914 -167 C955 -58 983 29 998 96 C998 641 994 965 987 1066 L987 1066 Z " />
<glyph glyph-name="uni0645" unicode="&#x645;" horiz-adv-x="1071" d="M409 328 C362 328 317 323 272 313 C237 282 196 234 149 168 C102 102 74 52 63 17 C68 4 77 -59 89 -170 C101 -281 107 -415 107 -572 C167 -527 215 -470 252 -401 C252 -156 236 10 204 96 C247 111 290 118 334 118 C461 118 624 81 822 8 C871 53 914 112 953 187 C993 258 1018 329 1028 401 C998 489 949 563 881 623 C813 683 738 713 655 713 C618 713 587 709 561 700 C550 690 525 658 487 604 C449 550 424 512 410 490 C396 468 386 452 379 441 C382 411 392 373 409 328 L409 328 Z M889 230 C864 245 809 264 724 285 C639 306 586 318 563 321 C532 366 517 423 516 490 C539 499 565 503 593 503 C663 503 725 475 779 419 C829 370 866 307 889 230 L889 230 Z " />
<glyph glyph-name="uni0646" unicode="&#x646;" horiz-adv-x="1331" d="M1264 118 C1255 211 1229 312 1187 420 C1145 528 1103 606 1060 653 L957 366 C996 326 1034 269 1069 194 C1104 119 1128 55 1139 0 C1086 -45 1008 -84 907 -118 C806 -152 698 -169 584 -169 C359 -167 246 -91 246 60 C246 112 252 160 266 202 C280 244 311 306 360 387 C343 410 322 422 299 422 C234 337 180 246 139 147 C98 48 77 -36 77 -107 C77 -201 108 -277 169 -334 C246 -407 361 -443 514 -443 C631 -443 754 -420 885 -372 C1016 -324 1117 -266 1188 -199 C1239 -44 1264 61 1264 118 L1264 118 Z M664 667 L835 816 L670 967 L500 820 L664 667 Z " />
<glyph glyph-name="uni0647" unicode="&#x647;" horiz-adv-x="752" d="M86 96 C152 23 252 -13 385 -13 L391 -13 C424 -13 501 10 623 57 C662 146 689 251 704 370 C693 509 657 610 594 674 C531 738 418 792 257 837 L179 582 L191 580 L242 570 C145 464 93 306 86 96 L86 96 Z M596 283 C539 244 474 224 400 224 C326 224 265 248 218 295 C240 414 279 497 334 542 C499 501 586 415 596 283 L596 283 Z " />
<glyph glyph-name="uni0648" unicode="&#x648;" horiz-adv-x="784" d="M732 122 C732 266 703 386 645 482 C587 578 508 629 409 636 C335 593 274 524 227 429 C180 334 156 227 156 107 C233 36 348 0 501 0 L615 39 C586 -48 521 -133 420 -218 C316 -311 186 -390 30 -454 C57 -471 87 -487 120 -501 C232 -548 332 -572 419 -572 C628 -341 732 -110 732 122 L732 122 Z M570 244 C549 233 521 227 484 227 C413 227 348 246 289 285 C290 299 292 313 296 328 C312 380 336 412 368 424 C417 422 460 402 499 364 C538 326 561 287 570 244 L570 244 Z " />
<glyph glyph-name="uni0649" unicode="&#x649;" horiz-adv-x="1439" d="M1278 618 L1388 886 C1346 905 1293 915 1229 915 C1110 915 1012 858 936 744 C860 630 798 454 747 215 C769 162 861 121 1022 91 C1121 74 1176 43 1188 -1 C1126 -33 1026 -66 887 -99 C748 -132 635 -149 546 -149 C337 -149 232 -72 232 83 C232 125 241 180 258 248 C275 316 292 367 311 402 C294 425 280 436 267 436 C254 436 245 435 238 432 C189 349 150 255 119 151 C88 47 73 -29 73 -76 C73 -306 212 -421 490 -421 C696 -421 940 -348 1221 -202 C1256 -133 1287 -8 1315 172 C1294 231 1226 273 1112 298 C998 323 924 355 889 395 C957 565 1046 650 1156 650 C1197 650 1237 639 1278 618 L1278 618 Z " />
<glyph glyph-name="uni064A" unicode="&#x64a;" horiz-adv-x="1439" d="M1278 619 L1388 887 C1346 906 1293 916 1229 916 C1110 916 1012 859 936 745 C860 631 798 455 747 216 C769 163 861 122 1022 92 C1121 75 1176 44 1188 0 C1126 -32 1026 -65 887 -98 C748 -131 635 -148 546 -148 C337 -148 232 -71 232 84 C232 126 241 181 258 249 C275 317 292 368 311 403 C294 426 280 437 267 437 C254 437 245 436 238 433 C189 350 150 256 119 152 C88 48 73 -28 73 -75 C73 -305 212 -420 490 -420 C696 -420 940 -347 1221 -201 C1256 -132 1287 -7 1315 173 C1294 232 1226 274 1112 299 C998 324 924 356 889 396 C957 566 1046 651 1156 651 C1197 651 1237 640 1278 619 L1278 619 Z M288 -713 L425 -850 L560 -715 L695 -850 L833 -713 L695 -575 L560 -710 L425 -575 L288 -713 Z " />
<glyph glyph-name="uni064B" unicode="&#x64b;" d="M-187 164 L188 301 L188 387 L-187 249 L-187 164 Z M-187 0 L188 140 L188 223 L-187 85 L-187 0 Z " />
<glyph glyph-name="uni064C" unicode="&#x64c;" d="M127 252 C140 292 147 327 147 358 C147 417 130 459 95 482 C21 482 -39 448 -84 380 C-89 365 -93 350 -98 337 C-103 324 -107 310 -111 296 C-110 271 -102 249 -86 232 C-70 215 -42 200 -3 187 C-35 157 -80 136 -138 124 C-144 189 -153 237 -166 268 C-212 229 -257 204 -300 191 L-300 63 C-270 72 -236 91 -198 120 C-193 103 -190 65 -190 7 C-75 28 13 78 74 157 C106 144 133 129 156 114 L156 234 L127 252 Z M74 268 C6 291 -31 318 -36 350 C-19 371 9 382 46 382 C67 369 78 341 78 298 C78 286 77 276 74 268 L74 268 Z " />
<glyph glyph-name="uni064D" unicode="&#x64d;" d="M-187 1 L188 138 L188 224 L-187 85 L-187 1 Z M-187 -163 L188 -23 L188 60 L-187 -78 L-187 -163 Z " />
<glyph glyph-name="uni064E" unicode="&#x64e;" d="M-187 1 L188 138 L188 224 L-187 85 L-187 1 Z " />
<glyph glyph-name="uni064F" unicode="&#x64f;" d="M104 249 C114 282 119 314 119 346 C119 419 97 466 53 487 C19 487 -13 476 -44 454 C-75 432 -100 403 -119 369 C-125 354 -133 326 -142 286 C-142 238 -106 203 -33 180 C-78 149 -138 129 -215 119 L-215 1 C-90 29 -3 80 48 153 C80 143 108 131 132 117 L132 235 C123 242 113 246 104 249 L104 249 Z M46 269 C-19 284 -59 306 -74 335 C-57 364 -27 378 17 378 C41 365 53 341 53 306 C53 291 51 278 46 269 L46 269 Z " />
<glyph glyph-name="uni0650" unicode="&#x650;" d="M-187 1 L188 138 L188 224 L-187 85 L-187 1 Z " />
<glyph glyph-name="uni0651" unicode="&#x651;" d="M102 230 C102 208 101 193 100 185 C99 177 89 175 72 180 C48 184 32 214 25 270 L-30 250 L-30 191 C-30 176 -36 164 -45 153 C-54 142 -64 137 -73 137 C-94 137 -105 154 -105 189 L-105 240 L-170 214 L-170 139 C-170 96 -163 63 -149 42 C-135 21 -116 10 -93 10 C-48 10 -13 38 12 94 C30 67 52 53 77 53 C102 53 123 66 140 92 C157 118 166 160 166 218 L166 321 L94 293 C99 273 102 252 102 230 L102 230 Z " />
<glyph glyph-name="uni0652" unicode="&#x652;" d="M139 225 C114 285 64 330 -10 360 C-87 288 -126 204 -126 108 C-126 83 -116 58 -96 35 C-76 12 -44 0 3 0 C50 0 92 23 130 70 C143 105 150 136 150 161 C150 186 146 208 139 225 L139 225 Z M-19 236 C41 210 75 180 83 145 C61 122 36 111 8 111 C-20 111 -39 116 -51 125 C-63 134 -69 145 -69 156 C-69 181 -52 208 -19 236 L-19 236 Z " />
<glyph glyph-name="uni0653" unicode="&#x653;" horiz-adv-x="619" d="M592 1306 L592 1400 C491 1341 389 1311 284 1311 C216 1311 146 1325 74 1352 C41 1271 23 1203 21 1146 L96 1146 C100 1158 113 1182 136 1218 C181 1202 229 1194 278 1194 C394 1194 499 1231 592 1306 L592 1306 Z " />
<glyph glyph-name="uni0654" unicode="&#x654;" d="M106 441 L179 514 C154 557 120 579 77 579 C16 579 -46 538 -109 457 C-121 442 -127 422 -126 397 C-126 372 -110 347 -77 323 L-114 292 L-114 188 C-60 236 39 278 184 315 L214 426 C177 417 121 402 45 379 C26 386 9 397 -4 411 C-17 425 -25 439 -26 454 C-13 473 7 482 36 482 C65 482 88 468 106 441 L106 441 Z " />
<glyph glyph-name="uni0655" unicode="&#x655;" d="M123 392 L196 465 C171 508 137 530 94 530 C33 530 -29 489 -92 408 C-104 393 -110 373 -109 348 C-109 323 -93 298 -60 274 L-97 243 L-97 139 C-43 187 56 229 201 266 L231 377 C194 368 138 353 62 330 C43 337 26 348 13 362 C0 376 -8 390 -9 405 C4 424 24 433 53 433 C82 433 105 419 123 392 L123 392 Z " />
<glyph glyph-name="uni0656" unicode="&#x656;" d="M-38 12 C-38 3 -35 -1 -28 -1 C-21 -1 -13 1 -3 5 C7 9 17 25 28 52 C39 79 44 110 44 144 C44 178 37 217 23 264 C9 311 -9 353 -32 389 L-107 300 C-86 265 -69 226 -55 182 C-41 138 -34 101 -34 71 L-38 12 Z " />
<glyph glyph-name="uni0660" unicode="&#x660;" horiz-adv-x="769" d="M674 608 C532 649 424 733 350 859 C334 798 300 737 249 674 C198 611 148 567 100 542 C132 530 164 515 196 497 C303 436 376 368 417 291 C431 344 463 402 513 466 C563 530 617 577 674 608 L674 608 Z " />
<glyph glyph-name="uni0661" unicode="&#x661;" horiz-adv-x="735" d="M405 -65 L535 73 C554 150 564 259 564 399 C564 539 542 672 496 799 C450 926 375 1064 270 1215 L98 966 C157 893 207 821 248 750 C359 559 415 345 415 109 C415 54 412 -4 405 -65 L405 -65 Z " />
<glyph glyph-name="uni0662" unicode="&#x662;" horiz-adv-x="926" d="M379 -65 L511 73 C528 143 537 250 537 395 C537 540 516 674 474 798 C502 785 534 779 570 779 C606 779 640 785 670 798 C754 834 822 938 875 1111 L792 1213 C775 1156 745 1108 704 1069 C663 1030 614 1011 559 1011 C448 1011 344 1079 246 1215 L75 966 C133 893 183 821 224 750 C335 561 390 351 390 122 C390 53 386 -9 379 -65 L379 -65 Z " />
<glyph glyph-name="uni0663" unicode="&#x663;" horiz-adv-x="983" d="M568 1203 C568 1112 541 1051 488 1020 C471 1009 448 1004 419 1004 L416 1004 C385 1005 354 1020 322 1051 C290 1082 250 1136 199 1215 L26 966 C141 820 222 680 270 546 C318 412 342 265 342 105 C342 42 339 -14 332 -65 L464 73 C481 143 490 249 490 391 C490 533 466 663 417 780 C442 774 463 771 480 771 C561 771 606 829 615 944 L617 944 C631 839 674 786 747 786 C808 786 857 822 894 893 C931 964 949 1054 949 1162 L876 1233 C867 1152 851 1096 829 1066 C812 1037 787 1022 753 1022 C682 1022 647 1083 647 1205 L647 1215 L568 1215 L568 1203 Z " />
<glyph glyph-name="uni0664" unicode="&#x664;" horiz-adv-x="889" d="M753 -51 L822 212 C802 203 773 199 736 199 C699 199 642 210 566 232 C490 254 418 284 350 321 C436 440 540 564 662 694 C521 739 405 792 313 853 C372 916 417 957 448 977 C479 997 512 1007 546 1007 C580 1007 618 998 660 981 L767 1199 C724 1210 680 1215 637 1215 C550 1215 476 1189 413 1137 C338 1071 238 937 114 735 C133 707 170 676 228 642 C286 608 341 584 394 570 C275 451 176 327 96 197 C188 132 299 74 430 24 C561 -26 665 -51 744 -51 L753 -51 Z " />
<glyph glyph-name="uni0665" unicode="&#x665;" horiz-adv-x="865" d="M767 600 C718 849 591 985 385 1009 C298 924 227 823 172 704 C117 585 90 468 90 354 C90 307 95 266 105 232 C168 145 254 102 364 102 C423 102 484 118 549 152 C614 186 665 231 704 287 C739 404 760 509 767 600 L767 600 Z M645 478 C618 442 581 414 534 393 C487 372 444 362 405 362 C306 362 240 385 208 431 C208 490 221 551 248 612 C277 667 309 710 344 741 C413 737 475 711 531 662 C587 613 625 552 645 478 L645 478 Z " />
<glyph glyph-name="uni0666" unicode="&#x666;" horiz-adv-x="966" d="M128 1215 L49 1215 C60 1056 88 950 134 898 C180 846 271 820 405 820 C452 820 512 824 584 831 C573 687 568 548 568 413 C568 278 588 176 628 106 C668 36 735 -16 831 -51 L893 265 C827 284 781 320 754 375 C739 404 728 441 722 484 C716 527 713 604 713 715 C713 826 723 961 743 1118 C610 1095 489 1083 380 1083 C237 1083 153 1127 128 1215 L128 1215 Z " />
<glyph glyph-name="uni0667" unicode="&#x667;" horiz-adv-x="983" d="M938 863 L861 1215 C774 1147 699 1032 634 872 C569 712 524 528 499 321 L495 321 C486 486 448 657 383 835 C318 1013 243 1140 159 1215 L37 893 C128 818 214 692 295 514 C376 336 427 148 450 -51 L546 -51 C570 144 619 325 694 494 C769 663 850 786 938 863 L938 863 Z " />
<glyph glyph-name="uni0668" unicode="&#x668;" horiz-adv-x="981" d="M859 -51 L936 300 C843 383 762 501 694 656 C626 811 575 998 544 1215 L450 1215 C422 1012 368 822 289 646 C210 470 125 347 36 276 L157 -51 C242 28 317 155 382 332 C447 509 484 680 493 844 L497 844 C522 639 567 455 632 292 C697 129 773 15 859 -51 L859 -51 Z " />
<glyph glyph-name="uni0669" unicode="&#x669;" horiz-adv-x="966" d="M833 -51 L906 250 C837 283 787 319 757 357 C728 396 705 453 690 528 C675 603 663 726 653 895 C636 1108 549 1215 390 1215 C342 1215 300 1205 265 1186 C175 1101 116 949 88 728 C173 619 266 564 366 564 C443 564 500 579 537 608 C542 542 554 448 573 327 C592 206 618 124 649 81 C682 31 743 -13 833 -51 L833 -51 Z M505 818 C472 805 443 798 417 798 C391 798 368 800 349 805 C281 822 237 848 216 883 C227 922 243 956 265 983 C277 988 296 990 320 990 C344 990 366 986 386 978 C449 953 488 899 505 818 L505 818 Z " />
<glyph glyph-name="uni066A" unicode="&#x66a;" horiz-adv-x="983" d="M280 1160 C261 1179 239 1188 212 1188 C185 1188 163 1179 144 1160 C125 1141 115 1118 115 1091 C115 1064 125 1042 144 1023 C163 1004 185 995 212 995 C239 995 261 1004 280 1023 C299 1042 308 1064 308 1091 C308 1118 299 1141 280 1160 L280 1160 Z M874 118 C856 137 833 147 806 147 C779 147 755 137 736 118 C717 99 708 76 708 50 C708 24 717 1 736 -18 C755 -37 778 -46 805 -46 C832 -46 854 -37 873 -18 C892 1 901 24 901 50 C901 76 892 99 874 118 L874 118 Z M211 -127 L295 -159 L832 1249 L750 1282 L211 -127 Z " />
<glyph glyph-name="uni066B" unicode="&#x66b;" horiz-adv-x="946" d="M113 -500 L223 -500 L850 482 L740 482 L113 -500 Z " />
<glyph glyph-name="uni066C" unicode="&#x66c;" horiz-adv-x="339" d="M204 929 C185 929 168 920 154 900 C140 880 134 862 134 846 C134 830 140 815 152 800 C164 785 183 774 209 768 C209 714 189 651 149 579 C145 570 147 566 155 566 C163 566 171 570 178 579 C233 683 261 767 261 832 C261 897 242 929 204 929 L204 929 Z " />
<glyph glyph-name="uni066D" unicode="&#x66d;" horiz-adv-x="1073" d="M666 700 L910 936 L826 1022 L591 780 L598 1129 L478 1129 L482 784 L248 1022 L163 936 L403 700 L60 704 L60 586 L405 589 L141 338 L227 253 L482 517 L478 161 L598 161 L591 517 L848 253 L932 338 L674 588 L1015 586 L1015 704 L666 700 Z " />
<glyph glyph-name="uni0670" unicode="&#x670;" d="M-45 12 C-44 -5 -32 -7 -8 6 C3 11 13 27 22 54 C32 80 37 110 37 144 C37 178 30 217 16 264 C2 311 -16 353 -38 389 L-113 300 C-93 265 -76 226 -62 182 C-48 138 -40 101 -40 71 L-45 12 Z " />
<glyph glyph-name="uni0671" unicode="&#x671;" horiz-adv-x="492" d="M368 1355 L120 1144 C145 1097 167 989 186 820 C211 630 224 431 224 222 C224 142 222 41 218 -81 L348 88 C383 435 400 732 400 981 C400 1105 389 1230 368 1355 L368 1355 Z M435 1524 C442 1550 447 1585 450 1628 C443 1664 430 1692 411 1712 C392 1732 368 1742 341 1742 C267 1742 207 1684 161 1569 L112 1599 L65 1520 L65 1357 L71 1357 L134 1458 C170 1437 208 1426 249 1426 C333 1426 395 1459 435 1524 L435 1524 Z M209 1552 C248 1611 286 1640 323 1640 C360 1640 383 1624 393 1591 C372 1557 327 1540 258 1540 C240 1540 224 1544 209 1552 L209 1552 Z " />
<glyph glyph-name="uni0672" unicode="&#x672;" horiz-adv-x="492" d="M368 1355 L120 1144 C145 1097 167 989 186 820 C211 630 224 431 224 222 C224 142 222 41 218 -81 L348 88 C383 435 400 732 400 981 C400 1105 389 1230 368 1355 L368 1355 Z M161 1609 C167 1632 181 1650 202 1662 C223 1674 241 1678 255 1673 C269 1668 282 1659 296 1645 C310 1631 316 1623 315 1620 C348 1647 364 1670 364 1690 C364 1697 362 1703 359 1708 C328 1739 292 1754 250 1754 C208 1754 171 1729 139 1678 C121 1649 112 1617 112 1582 C112 1547 124 1522 149 1509 C174 1496 196 1488 216 1487 C196 1478 164 1470 120 1465 C57 1458 26 1425 26 1366 C26 1361 27 1359 30 1359 C33 1359 35 1359 37 1360 C53 1399 106 1422 197 1429 C288 1436 353 1455 394 1486 C411 1519 419 1540 419 1549 C419 1553 404 1552 374 1544 C344 1536 314 1532 287 1532 C215 1532 173 1558 161 1609 L161 1609 Z " />
<glyph glyph-name="uni0673" unicode="&#x673;" horiz-adv-x="492" d="M368 1355 L120 1144 C145 1097 167 989 186 820 C211 630 224 431 224 222 C224 142 222 41 218 -81 L348 88 C383 435 400 732 400 981 C400 1105 389 1230 368 1355 L368 1355 Z M183 -342 C189 -319 203 -301 224 -289 C245 -277 263 -273 277 -278 C291 -283 304 -292 318 -306 C332 -320 338 -328 337 -331 C370 -304 386 -281 386 -261 C386 -254 384 -248 381 -243 C350 -212 314 -197 272 -197 C230 -197 193 -222 161 -273 C143 -302 134 -334 134 -369 C134 -404 146 -429 171 -442 C196 -455 218 -463 238 -464 C218 -473 186 -481 142 -486 C79 -493 48 -526 48 -585 C48 -590 49 -592 52 -592 C55 -592 57 -592 59 -591 C75 -552 128 -529 219 -522 C310 -515 375 -496 416 -465 C433 -432 441 -411 441 -402 C441 -398 426 -399 396 -407 C366 -415 336 -419 309 -419 C237 -419 195 -393 183 -342 L183 -342 Z " />
<glyph glyph-name="uni0675" unicode="&#x675;" horiz-adv-x="492" d="M368 1355 L120 1144 C145 1097 167 989 186 820 C211 630 224 431 224 222 C224 142 222 41 218 -81 L348 88 C383 435 400 732 400 981 C400 1105 389 1230 368 1355 L368 1355 Z M297 1587 L370 1660 C345 1703 311 1725 268 1725 C207 1725 145 1684 82 1603 C70 1588 64 1568 65 1543 C65 1518 81 1493 114 1469 L77 1438 L77 1334 C131 1382 230 1424 375 1461 L405 1572 C368 1563 312 1548 236 1525 C217 1532 200 1543 187 1557 C174 1571 166 1585 165 1600 C178 1619 198 1628 227 1628 C256 1628 279 1614 297 1587 L297 1587 Z " />
<glyph glyph-name="uni0676" unicode="&#x676;" horiz-adv-x="784" d="M732 122 C732 266 703 386 645 482 C587 578 508 629 409 636 C335 593 274 524 227 429 C180 334 156 227 156 107 C233 36 348 0 501 0 L615 39 C586 -48 521 -133 420 -218 C316 -311 186 -390 30 -454 C57 -471 87 -487 120 -501 C232 -548 332 -572 419 -572 C628 -341 732 -110 732 122 L732 122 Z M570 244 C549 233 521 227 484 227 C413 227 348 246 289 285 C290 299 292 313 296 328 C312 380 336 412 368 424 C417 422 460 402 499 364 C538 326 561 287 570 244 L570 244 Z M496 1002 L569 1075 C544 1118 510 1140 467 1140 C406 1140 344 1099 281 1018 C269 1003 263 983 264 958 C264 933 280 908 313 884 L276 853 L276 749 C330 797 429 839 574 876 L604 987 C567 978 511 963 435 940 C416 947 399 958 386 972 C373 986 365 1000 364 1015 C377 1034 397 1043 426 1043 C455 1043 478 1029 496 1002 L496 1002 Z " />
<glyph glyph-name="uni0677" unicode="&#x677;" horiz-adv-x="784" d="M732 122 C732 266 703 386 645 482 C587 578 508 629 409 636 C335 593 274 524 227 429 C180 334 156 227 156 107 C233 36 348 0 501 0 L615 39 C586 -48 521 -133 420 -218 C316 -311 186 -390 30 -454 C57 -471 87 -487 120 -501 C232 -548 332 -572 419 -572 C628 -341 732 -110 732 122 L732 122 Z M570 244 C549 233 521 227 484 227 C413 227 348 246 289 285 C290 299 292 313 296 328 C312 380 336 412 368 424 C417 422 460 402 499 364 C538 326 561 287 570 244 L570 244 Z M670 1025 L743 1098 C718 1141 684 1163 641 1163 C580 1163 518 1122 455 1041 C443 1026 437 1006 438 981 C438 956 454 931 487 907 L450 876 L450 772 C504 820 603 862 748 899 L778 1010 C741 1001 685 986 609 963 C590 970 573 981 560 995 C547 1009 539 1023 538 1038 C551 1057 571 1066 600 1066 C629 1066 652 1052 670 1025 L670 1025 Z M350 938 C361 970 366 1002 366 1035 C366 1108 344 1155 300 1176 C282 1176 265 1173 249 1167 C198 1148 158 1112 128 1058 C119 1033 111 1005 105 975 C105 926 141 891 214 870 C170 839 109 818 32 808 L32 690 C157 718 244 769 295 842 C326 832 354 820 379 806 L379 924 C369 931 359 935 350 938 L350 938 Z M293 958 C228 973 188 995 173 1024 C190 1053 220 1067 264 1067 C288 1054 300 1030 300 995 C300 980 298 967 293 958 L293 958 Z " />
<glyph glyph-name="uni0678" unicode="&#x678;" horiz-adv-x="1439" d="M1278 619 L1388 887 C1346 906 1293 916 1229 916 C1110 916 1012 859 936 745 C860 631 798 455 747 216 C769 163 861 122 1022 92 C1121 75 1176 44 1188 0 C1126 -32 1026 -65 887 -98 C748 -131 635 -148 546 -148 C337 -148 232 -71 232 84 C232 126 241 181 258 249 C275 317 292 368 311 403 C294 426 280 437 267 437 C254 437 245 436 238 433 C189 350 150 256 119 152 C88 48 73 -28 73 -75 C73 -305 212 -420 490 -420 C696 -420 940 -347 1221 -201 C1256 -132 1287 -7 1315 173 C1294 232 1226 274 1112 299 C998 324 924 356 889 396 C957 566 1046 651 1156 651 C1197 651 1237 640 1278 619 L1278 619 Z M605 918 L678 991 C653 1034 619 1056 576 1056 C515 1056 453 1015 390 934 C378 919 372 899 373 874 C373 849 389 824 422 800 L385 769 L385 665 C439 713 538 755 683 792 L713 903 C676 894 620 879 544 856 C525 863 508 874 495 888 C482 902 474 916 473 931 C486 950 506 959 535 959 C564 959 587 945 605 918 L605 918 Z " />
<glyph glyph-name="uni0679" unicode="&#x679;" horiz-adv-x="1585" d="M1388 364 C1309 332 1212 309 1096 295 C980 281 883 274 802 274 L660 274 C368 276 222 347 222 486 C222 555 244 630 287 711 C274 734 256 745 234 745 C229 745 222 744 214 741 C129 589 86 456 86 342 C86 106 251 -12 582 -12 C877 -12 1145 41 1388 146 C1467 263 1516 363 1535 448 C1531 499 1518 558 1496 625 C1474 692 1452 743 1428 777 L1272 576 C1321 527 1360 456 1388 364 L1388 364 Z M974 965 C970 988 959 1009 942 1025 C925 1041 904 1049 879 1049 C830 1049 780 1020 729 962 C729 1075 728 1143 725 1166 C728 1165 732 1164 738 1164 L744 1164 C747 1164 749 1165 752 1166 C729 1199 712 1232 703 1263 L643 1210 C668 1153 680 1050 680 901 C628 901 596 914 584 939 C578 939 573 937 570 934 C583 877 595 842 606 829 C617 816 649 810 701 810 C753 810 805 823 858 851 C911 879 949 917 974 965 L974 965 Z M898 937 C873 912 825 899 752 899 L719 899 C736 926 757 948 780 964 C803 980 823 988 839 988 C873 988 893 971 898 937 L898 937 Z " />
<glyph glyph-name="uni067A" unicode="&#x67a;" horiz-adv-x="1585" d="M1388 364 C1309 332 1212 309 1096 295 C980 281 883 274 802 274 L660 274 C368 276 222 347 222 486 C222 555 244 630 287 711 C274 734 256 745 234 745 C229 745 222 744 214 741 C129 589 86 456 86 342 C86 106 251 -12 582 -12 C877 -12 1145 41 1388 146 C1467 263 1516 363 1535 448 C1531 499 1518 558 1496 625 C1474 692 1452 743 1428 777 L1272 576 C1321 527 1360 456 1388 364 L1388 364 Z M810 695 L953 838 L802 972 L659 828 L810 695 Z M806 989 L949 1132 L799 1266 L655 1122 L806 989 Z " />
<glyph glyph-name="uni067B" unicode="&#x67b;" horiz-adv-x="1585" d="M1388 364 C1309 332 1212 309 1096 295 C980 281 883 274 802 274 L660 274 C368 276 222 347 222 486 C222 555 244 630 287 711 C274 734 256 745 234 745 C229 745 222 744 214 741 C129 589 86 456 86 342 C86 106 251 -12 582 -12 C877 -12 1145 41 1388 146 C1467 263 1516 363 1535 448 C1531 499 1518 558 1496 625 C1474 692 1452 743 1428 777 L1272 576 C1321 527 1360 456 1388 364 L1388 364 Z M727 -736 L870 -593 L719 -459 L576 -603 L727 -736 Z M723 -442 L866 -299 L716 -165 L572 -309 L723 -442 Z " />
<glyph glyph-name="uni067C" unicode="&#x67c;" horiz-adv-x="1585" d="M1388 364 C1309 332 1212 309 1096 295 C980 281 883 274 802 274 L660 274 C368 276 222 347 222 486 C222 555 244 630 287 711 C274 734 256 745 234 745 C229 745 222 744 214 741 C129 589 86 456 86 342 C86 106 251 -12 582 -12 C603 -12 624 -12 644 -11 C625 -54 615 -99 615 -147 C615 -172 625 -196 645 -219 C665 -242 697 -254 744 -254 C791 -254 833 -231 871 -184 C884 -149 891 -118 891 -93 C891 -68 887 -46 880 -29 C875 -17 869 -6 862 5 C1049 28 1224 75 1388 146 C1467 263 1516 363 1535 448 C1531 499 1518 558 1496 625 C1474 692 1452 743 1428 777 L1272 576 C1321 527 1360 456 1388 364 L1388 364 Z M527 949 L664 812 L799 947 L934 812 L1072 949 L934 1087 L799 952 L664 1087 L527 949 Z M722 -18 C783 -44 816 -74 823 -109 C802 -132 778 -143 750 -143 C722 -143 702 -138 690 -129 C678 -120 672 -109 672 -98 C672 -73 689 -46 722 -18 L722 -18 Z " />
<glyph glyph-name="uni067D" unicode="&#x67d;" horiz-adv-x="1585" d="M1388 364 C1309 332 1212 309 1096 295 C980 281 883 274 802 274 L660 274 C368 276 222 347 222 486 C222 555 244 630 287 711 C274 734 256 745 234 745 C229 745 222 744 214 741 C129 589 86 456 86 342 C86 106 251 -12 582 -12 C877 -12 1145 41 1388 146 C1467 263 1516 363 1535 448 C1531 499 1518 558 1496 625 C1474 692 1452 743 1428 777 L1272 576 C1321 527 1360 456 1388 364 L1388 364 Z M628 851 L759 723 L895 840 L765 969 L628 851 Z M496 1090 L626 964 L763 1080 L631 1210 L496 1090 Z M767 1086 L899 960 L1035 1078 L905 1206 L767 1086 Z " />
<glyph glyph-name="uni067E" unicode="&#x67e;" horiz-adv-x="1585" d="M1388 364 C1309 332 1212 309 1096 295 C980 281 883 274 802 274 L660 274 C368 276 222 347 222 486 C222 555 244 630 287 711 C274 734 256 745 234 745 C229 745 222 744 214 741 C129 589 86 456 86 342 C86 106 251 -12 582 -12 C877 -12 1145 41 1388 146 C1467 263 1516 363 1535 448 C1531 499 1518 558 1496 625 C1474 692 1452 743 1428 777 L1272 576 C1321 527 1360 456 1388 364 L1388 364 Z M638 -559 L769 -687 L905 -570 L775 -441 L638 -559 Z M506 -320 L636 -446 L773 -330 L641 -200 L506 -320 Z M777 -324 L909 -450 L1045 -332 L915 -204 L777 -324 Z " />
<glyph glyph-name="uni067F" unicode="&#x67f;" horiz-adv-x="1585" d="M1388 364 C1309 332 1212 309 1096 295 C980 281 883 274 802 274 L660 274 C368 276 222 347 222 486 C222 555 244 630 287 711 C274 734 256 745 234 745 C229 745 222 744 214 741 C129 589 86 456 86 342 C86 106 251 -12 582 -12 C877 -12 1145 41 1388 146 C1467 263 1516 363 1535 448 C1531 499 1518 558 1496 625 C1474 692 1452 743 1428 777 L1272 576 C1321 527 1360 456 1388 364 L1388 364 Z M644 1283 L775 1155 L912 1272 L781 1401 L644 1283 Z M640 815 L771 687 L908 805 L777 933 L640 815 Z M508 1054 L638 928 L775 1045 L644 1174 L508 1054 Z M779 1050 L912 925 L1047 1043 L917 1170 L779 1050 Z " />
<glyph glyph-name="uni0680" unicode="&#x680;" horiz-adv-x="1585" d="M1388 364 C1309 332 1212 309 1096 295 C980 281 883 274 802 274 L660 274 C368 276 222 347 222 486 C222 555 244 630 287 711 C274 734 256 745 234 745 C229 745 222 744 214 741 C129 589 86 456 86 342 C86 106 251 -12 582 -12 C877 -12 1145 41 1388 146 C1467 263 1516 363 1535 448 C1531 499 1518 558 1496 625 C1474 692 1452 743 1428 777 L1272 576 C1321 527 1360 456 1388 364 L1388 364 Z M563 -265 L694 -393 L831 -276 L700 -147 L563 -265 Z M559 -733 L690 -861 L827 -743 L696 -615 L559 -733 Z M427 -494 L557 -620 L694 -503 L563 -374 L427 -494 Z M698 -498 L831 -623 L966 -505 L836 -378 L698 -498 Z " />
<glyph glyph-name="uni0681" unicode="&#x681;" horiz-adv-x="1300" d="M1189 -503 L1270 -372 C1175 -384 1070 -390 953 -390 C512 -390 291 -269 291 -26 C291 73 328 165 401 248 C434 286 470 319 510 346 C550 373 604 399 671 425 C738 451 807 464 878 464 C949 464 996 462 1020 458 L1176 704 C1100 695 998 690 870 690 C742 690 601 717 448 771 C385 793 342 804 316 804 C290 804 263 782 235 738 C207 694 159 585 90 411 C108 397 131 390 159 390 C182 455 204 499 224 523 C243 541 263 550 283 550 C303 550 340 540 394 522 C448 504 508 491 572 484 L580 484 L580 480 C414 399 285 301 192 186 C99 71 53 -44 53 -157 C53 -308 117 -419 246 -492 C345 -545 460 -572 593 -572 C800 -572 998 -549 1189 -503 L1189 -503 Z M722 1174 L795 1247 C770 1290 736 1312 693 1312 C632 1312 570 1271 507 1190 C495 1175 489 1155 490 1130 C490 1105 506 1080 539 1056 L502 1025 L502 921 C556 969 655 1011 800 1048 L830 1159 C793 1150 737 1135 661 1112 C642 1119 625 1130 612 1144 C599 1158 591 1172 590 1187 C603 1206 623 1215 652 1215 C681 1215 704 1201 722 1174 L722 1174 Z " />
<glyph glyph-name="uni0682" unicode="&#x682;" horiz-adv-x="1300" d="M1189 -503 L1270 -372 C1175 -384 1070 -390 953 -390 C512 -390 291 -269 291 -26 C291 73 328 165 401 248 C434 286 470 319 510 346 C550 373 604 399 671 425 C738 451 807 464 878 464 C949 464 996 462 1020 458 L1176 704 C1100 695 998 690 870 690 C742 690 601 717 448 771 C385 793 342 804 316 804 C290 804 263 782 235 738 C207 694 159 585 90 411 C108 397 131 390 159 390 C182 455 204 499 224 523 C243 541 263 550 283 550 C303 550 340 540 394 522 C448 504 508 491 572 484 L580 484 L580 480 C414 399 285 301 192 186 C99 71 53 -44 53 -157 C53 -308 117 -419 246 -492 C345 -545 460 -572 593 -572 C800 -572 998 -549 1189 -503 L1189 -503 Z M698 906 L841 1049 L690 1183 L547 1039 L698 906 Z M694 1200 L837 1343 L687 1477 L543 1333 L694 1200 Z " />
<glyph glyph-name="uni0683" unicode="&#x683;" horiz-adv-x="1300" d="M1189 -503 L1270 -372 C1175 -384 1070 -390 953 -390 C512 -390 291 -269 291 -26 C291 73 328 165 401 248 C434 286 470 319 510 346 C550 373 604 399 671 425 C738 451 807 464 878 464 C949 464 996 462 1020 458 L1176 704 C1100 695 998 690 870 690 C742 690 601 717 448 771 C385 793 342 804 316 804 C290 804 263 782 235 738 C207 694 159 585 90 411 C108 397 131 390 159 390 C182 455 204 499 224 523 C243 541 263 550 283 550 C303 550 340 540 394 522 C448 504 508 491 572 484 L580 484 L580 480 C414 399 285 301 192 186 C99 71 53 -44 53 -157 C53 -308 117 -419 246 -492 C345 -545 460 -572 593 -572 C800 -572 998 -549 1189 -503 L1189 -503 Z M547 35 L684 -102 L819 33 L954 -102 L1092 35 L954 173 L819 38 L684 173 L547 35 Z " />
<glyph glyph-name="uni0684" unicode="&#x684;" horiz-adv-x="1300" d="M1189 -503 L1270 -372 C1175 -384 1070 -390 953 -390 C512 -390 291 -269 291 -26 C291 73 328 165 401 248 C434 286 470 319 510 346 C550 373 604 399 671 425 C738 451 807 464 878 464 C949 464 996 462 1020 458 L1176 704 C1100 695 998 690 870 690 C742 690 601 717 448 771 C385 793 342 804 316 804 C290 804 263 782 235 738 C207 694 159 585 90 411 C108 397 131 390 159 390 C182 455 204 499 224 523 C243 541 263 550 283 550 C303 550 340 540 394 522 C448 504 508 491 572 484 L580 484 L580 480 C414 399 285 301 192 186 C99 71 53 -44 53 -157 C53 -308 117 -419 246 -492 C345 -545 460 -572 593 -572 C800 -572 998 -549 1189 -503 L1189 -503 Z M813 -264 L956 -121 L805 13 L662 -131 L813 -264 Z M809 30 L952 173 L802 307 L658 163 L809 30 Z " />
<glyph glyph-name="uni0685" unicode="&#x685;" horiz-adv-x="1300" d="M1189 -503 L1270 -372 C1175 -384 1070 -390 953 -390 C512 -390 291 -269 291 -26 C291 73 328 165 401 248 C434 286 470 319 510 346 C550 373 604 399 671 425 C738 451 807 464 878 464 C949 464 996 462 1020 458 L1176 704 C1100 695 998 690 870 690 C742 690 601 717 448 771 C385 793 342 804 316 804 C290 804 263 782 235 738 C207 694 159 585 90 411 C108 397 131 390 159 390 C182 455 204 499 224 523 C243 541 263 550 283 550 C303 550 340 540 394 522 C448 504 508 491 572 484 L580 484 L580 480 C414 399 285 301 192 186 C99 71 53 -44 53 -157 C53 -308 117 -419 246 -492 C345 -545 460 -572 593 -572 C800 -572 998 -549 1189 -503 L1189 -503 Z M850 71 L979 198 L844 316 L714 191 L850 71 Z M718 -169 L848 -41 L713 76 L581 -51 L718 -169 Z M990 -165 L1120 -37 L983 80 L852 -47 L990 -165 Z " />
<glyph glyph-name="uni0686" unicode="&#x686;" horiz-adv-x="1300" d="M1189 -503 L1270 -372 C1175 -384 1070 -390 953 -390 C512 -390 291 -269 291 -26 C291 73 328 165 401 248 C434 286 470 319 510 346 C550 373 604 399 671 425 C738 451 807 464 878 464 C949 464 996 462 1020 458 L1176 704 C1100 695 998 690 870 690 C742 690 601 717 448 771 C385 793 342 804 316 804 C290 804 263 782 235 738 C207 694 159 585 90 411 C108 397 131 390 159 390 C182 455 204 499 224 523 C243 541 263 550 283 550 C303 550 340 540 394 522 C448 504 508 491 572 484 L580 484 L580 480 C414 399 285 301 192 186 C99 71 53 -44 53 -157 C53 -308 117 -419 246 -492 C345 -545 460 -572 593 -572 C800 -572 998 -549 1189 -503 L1189 -503 Z M610 -146 L741 -274 L877 -157 L747 -28 L610 -146 Z M478 93 L608 -33 L745 83 L613 213 L478 93 Z M749 89 L881 -37 L1017 81 L887 209 L749 89 Z " />
<glyph glyph-name="uni0687" unicode="&#x687;" horiz-adv-x="1300" d="M1189 -503 L1270 -372 C1175 -384 1070 -390 953 -390 C512 -390 291 -269 291 -26 C291 73 328 165 401 248 C434 286 470 319 510 346 C550 373 604 399 671 425 C738 451 807 464 878 464 C949 464 996 462 1020 458 L1176 704 C1100 695 998 690 870 690 C742 690 601 717 448 771 C385 793 342 804 316 804 C290 804 263 782 235 738 C207 694 159 585 90 411 C108 397 131 390 159 390 C182 455 204 499 224 523 C243 541 263 550 283 550 C303 550 340 540 394 522 C448 504 508 491 572 484 L580 484 L580 480 C414 399 285 301 192 186 C99 71 53 -44 53 -157 C53 -308 117 -419 246 -492 C345 -545 460 -572 593 -572 C800 -572 998 -549 1189 -503 L1189 -503 Z M705 238 L812 133 L924 229 L817 334 L705 238 Z M702 -145 L809 -249 L921 -153 L814 -48 L702 -145 Z M594 51 L700 -52 L812 43 L705 149 L594 51 Z M815 47 L924 -55 L1034 42 L928 145 L815 47 Z " />
<glyph glyph-name="uni0688" unicode="&#x688;" horiz-adv-x="788" d="M728 427 C728 525 690 619 613 709 C536 799 416 876 252 940 L201 636 C262 623 315 607 360 588 C495 532 575 440 602 311 C583 292 544 272 486 253 C430 239 371 232 310 232 C249 232 203 245 173 272 C170 279 169 289 169 304 C169 319 170 327 171 330 C164 337 156 340 146 339 C136 338 129 338 126 338 L124 338 C119 329 108 291 94 224 C80 157 73 95 73 37 C128 -2 204 -22 300 -22 C449 -22 571 14 668 86 C708 247 728 360 728 427 L728 427 Z M494 1253 C490 1276 479 1297 462 1313 C445 1329 424 1337 399 1337 C350 1337 300 1308 249 1250 C249 1363 248 1431 245 1454 C248 1453 252 1452 258 1452 L264 1452 C267 1452 269 1453 272 1454 C249 1487 232 1520 223 1551 L163 1498 C188 1441 200 1338 200 1189 C148 1189 116 1202 104 1227 C98 1227 93 1225 90 1222 C103 1165 115 1130 126 1117 C137 1104 169 1098 221 1098 C273 1098 325 1111 378 1139 C431 1167 469 1205 494 1253 L494 1253 Z M418 1225 C393 1200 345 1187 272 1187 L239 1187 C256 1214 277 1236 300 1252 C323 1268 343 1276 359 1276 C393 1276 413 1259 418 1225 L418 1225 Z " />
<glyph glyph-name="uni0689" unicode="&#x689;" horiz-adv-x="788" d="M728 427 C728 525 690 619 613 709 C536 799 416 876 252 940 L201 636 C262 623 315 607 360 588 C495 532 575 440 602 311 C583 292 544 272 486 253 C430 239 371 232 310 232 C249 232 203 245 173 272 C170 279 169 289 169 304 C169 319 170 327 171 330 C164 337 156 340 146 339 C136 338 129 338 126 338 L124 338 C119 329 108 291 94 224 C80 157 73 95 73 37 C100 18 131 4 168 -6 C139 -56 125 -110 125 -168 C125 -193 135 -217 155 -240 C175 -263 207 -275 254 -275 C301 -275 343 -252 381 -205 C394 -170 401 -139 401 -114 C401 -89 397 -67 390 -50 C385 -39 380 -29 374 -19 C490 -9 588 26 668 86 C708 247 728 360 728 427 L728 427 Z M232 -39 C293 -65 326 -95 333 -130 C312 -153 288 -164 260 -164 C232 -164 212 -159 200 -150 C188 -141 182 -130 182 -119 C182 -94 199 -67 232 -39 L232 -39 Z " />
<glyph glyph-name="uni068A" unicode="&#x68a;" horiz-adv-x="788" d="M728 427 C728 525 690 619 613 709 C536 799 416 876 252 940 L201 636 C262 623 315 607 360 588 C495 532 575 440 602 311 C583 292 544 272 486 253 C430 239 371 232 310 232 C249 232 203 245 173 272 C170 279 169 289 169 304 C169 319 170 327 171 330 C164 337 156 340 146 339 C136 338 129 338 126 338 L124 338 C119 329 108 291 94 224 C80 157 73 95 73 37 C128 -2 204 -22 300 -22 C449 -22 571 14 668 86 C708 247 728 360 728 427 L728 427 Z M261 -501 L432 -352 L267 -201 L97 -348 L261 -501 Z " />
<glyph glyph-name="uni068B" unicode="&#x68b;" horiz-adv-x="788" d="M728 427 C728 525 690 619 613 709 C536 799 416 876 252 940 L201 636 C262 623 315 607 360 588 C495 532 575 440 602 311 C583 292 544 272 486 253 C430 239 371 232 310 232 C249 232 203 245 173 272 C170 279 169 289 169 304 C169 319 170 327 171 330 C164 337 156 340 146 339 C136 338 129 338 126 338 L124 338 C119 329 108 291 94 224 C80 157 73 95 73 37 C128 -2 204 -22 300 -22 C449 -22 571 14 668 86 C708 247 728 360 728 427 L728 427 Z M501 1270 C497 1293 486 1314 469 1330 C452 1346 431 1354 406 1354 C357 1354 307 1325 256 1267 C256 1380 255 1448 252 1471 C255 1470 259 1469 265 1469 L271 1469 C274 1469 276 1470 279 1471 C256 1504 239 1537 230 1568 L170 1515 C195 1458 207 1355 207 1206 C155 1206 123 1219 111 1244 C105 1244 100 1242 97 1239 C110 1182 122 1147 133 1134 C144 1121 176 1115 228 1115 C280 1115 332 1128 385 1156 C438 1184 476 1222 501 1270 L501 1270 Z M425 1242 C400 1217 352 1204 279 1204 L246 1204 C263 1231 284 1253 307 1269 C330 1285 350 1293 366 1293 C400 1293 420 1276 425 1242 L425 1242 Z M312 -502 L483 -353 L318 -202 L148 -349 L312 -502 Z " />
<glyph glyph-name="uni068C" unicode="&#x68c;" horiz-adv-x="788" d="M728 427 C728 525 690 619 613 709 C536 799 416 876 252 940 L201 636 C262 623 315 607 360 588 C495 532 575 440 602 311 C583 292 544 272 486 253 C430 239 371 232 310 232 C249 232 203 245 173 272 C170 279 169 289 169 304 C169 319 170 327 171 330 C164 337 156 340 146 339 C136 338 129 338 126 338 L124 338 C119 329 108 291 94 224 C80 157 73 95 73 37 C128 -2 204 -22 300 -22 C449 -22 571 14 668 86 C708 247 728 360 728 427 L728 427 Z M23 1216 L160 1079 L295 1214 L430 1079 L568 1216 L430 1354 L295 1219 L160 1354 L23 1216 Z " />
<glyph glyph-name="uni068D" unicode="&#x68d;" horiz-adv-x="788" d="M728 427 C728 525 690 619 613 709 C536 799 416 876 252 940 L201 636 C262 623 315 607 360 588 C495 532 575 440 602 311 C583 292 544 272 486 253 C430 239 371 232 310 232 C249 232 203 245 173 272 C170 279 169 289 169 304 C169 319 170 327 171 330 C164 337 156 340 146 339 C136 338 129 338 126 338 L124 338 C119 329 108 291 94 224 C80 157 73 95 73 37 C128 -2 204 -22 300 -22 C449 -22 571 14 668 86 C708 247 728 360 728 427 L728 427 Z M25 -352 L162 -489 L297 -354 L432 -489 L570 -352 L432 -214 L297 -349 L162 -214 L25 -352 Z " />
<glyph glyph-name="uni068E" unicode="&#x68e;" horiz-adv-x="788" d="M728 427 C728 525 690 619 613 709 C536 799 416 876 252 940 L201 636 C262 623 315 607 360 588 C495 532 575 440 602 311 C583 292 544 272 486 253 C430 239 371 232 310 232 C249 232 203 245 173 272 C170 279 169 289 169 304 C169 319 170 327 171 330 C164 337 156 340 146 339 C136 338 129 338 126 338 L124 338 C119 329 108 291 94 224 C80 157 73 95 73 37 C128 -2 204 -22 300 -22 C449 -22 571 14 668 86 C708 247 728 360 728 427 L728 427 Z M276 1293 L405 1420 L270 1538 L140 1413 L276 1293 Z M144 1053 L274 1181 L139 1298 L7 1171 L144 1053 Z M416 1057 L546 1185 L409 1302 L278 1175 L416 1057 Z " />
<glyph glyph-name="uni068F" unicode="&#x68f;" horiz-adv-x="788" d="M728 427 C728 525 690 619 613 709 C536 799 416 876 252 940 L201 636 C262 623 315 607 360 588 C495 532 575 440 602 311 C583 292 544 272 486 253 C430 239 371 232 310 232 C249 232 203 245 173 272 C170 279 169 289 169 304 C169 319 170 327 171 330 C164 337 156 340 146 339 C136 338 129 338 126 338 L124 338 C119 329 108 291 94 224 C80 157 73 95 73 37 C128 -2 204 -22 300 -22 C449 -22 571 14 668 86 C708 247 728 360 728 427 L728 427 Z M115 1232 L246 1104 L382 1221 L252 1350 L115 1232 Z M-17 1471 L113 1345 L250 1461 L118 1591 L-17 1471 Z M254 1467 L386 1341 L522 1459 L392 1587 L254 1467 Z " />
<glyph glyph-name="uni0690" unicode="&#x690;" horiz-adv-x="788" d="M728 427 C728 525 690 619 613 709 C536 799 416 876 252 940 L201 636 C262 623 315 607 360 588 C495 532 575 440 602 311 C583 292 544 272 486 253 C430 239 371 232 310 232 C249 232 203 245 173 272 C170 279 169 289 169 304 C169 319 170 327 171 330 C164 337 156 340 146 339 C136 338 129 338 126 338 L124 338 C119 329 108 291 94 224 C80 157 73 95 73 37 C128 -2 204 -22 300 -22 C449 -22 571 14 668 86 C708 247 728 360 728 427 L728 427 Z M130 1615 L254 1494 L384 1605 L260 1727 L130 1615 Z M126 1173 L250 1051 L380 1163 L256 1284 L126 1173 Z M1 1399 L124 1279 L254 1390 L130 1512 L1 1399 Z M258 1395 L384 1277 L512 1388 L389 1509 L258 1395 Z " />
<glyph glyph-name="uni0691" unicode="&#x691;" horiz-adv-x="724" d="M546 0 C453 -156 271 -299 0 -428 C64 -479 184 -524 360 -563 C542 -366 650 -148 684 92 C649 253 586 390 495 505 L354 236 C457 154 521 75 546 0 L546 0 Z M652 774 C648 797 637 818 620 834 C603 850 582 858 557 858 C508 858 458 829 407 771 C407 884 406 952 403 975 C406 974 410 973 416 973 L422 973 C425 973 427 974 430 975 C407 1008 390 1041 381 1072 L321 1019 C346 962 358 859 358 710 C306 710 274 723 262 748 C256 748 251 746 248 743 C261 686 273 651 284 638 C295 625 327 619 379 619 C431 619 483 632 536 660 C589 688 627 726 652 774 L652 774 Z M576 746 C551 721 503 708 430 708 L397 708 C414 735 435 757 458 773 C481 789 501 797 517 797 C551 797 571 780 576 746 L576 746 Z " />
<glyph glyph-name="uni0692" unicode="&#x692;" horiz-adv-x="724" d="M546 0 C453 -156 271 -299 0 -428 C64 -479 184 -524 360 -563 C542 -366 650 -148 684 92 C649 253 586 390 495 505 L354 236 C457 154 521 75 546 0 L546 0 Z M711 1061 L574 1049 C538 998 513 921 497 818 C474 920 443 996 405 1044 L266 1052 C287 1035 308 1015 326 990 C386 914 428 822 451 714 L543 717 C559 779 580 841 604 900 C628 959 664 1013 711 1061 L711 1061 Z " />
<glyph glyph-name="uni0693" unicode="&#x693;" horiz-adv-x="724" d="M546 0 C453 -156 271 -299 0 -428 C26 -449 61 -468 105 -487 C79 -535 66 -586 66 -642 C66 -667 76 -691 96 -714 C116 -737 148 -749 195 -749 C242 -749 284 -726 322 -679 C335 -644 342 -613 342 -588 C342 -578 341 -568 340 -558 C347 -560 353 -562 360 -563 C542 -366 650 -148 684 92 C649 253 586 390 495 505 L354 236 C457 154 521 75 546 0 L546 0 Z M173 -513 C234 -539 267 -569 274 -604 C253 -627 229 -638 201 -638 C173 -638 153 -633 141 -624 C129 -615 123 -604 123 -593 C123 -568 140 -541 173 -513 L173 -513 Z " />
<glyph glyph-name="uni0694" unicode="&#x694;" horiz-adv-x="724" d="M546 0 C453 -156 271 -299 0 -428 C64 -479 184 -524 360 -563 C542 -366 650 -148 684 92 C649 253 586 390 495 505 L354 236 C457 154 521 75 546 0 L546 0 Z M241 -951 L412 -802 L247 -651 L77 -798 L241 -951 Z " />
<glyph glyph-name="uni0695" unicode="&#x695;" horiz-adv-x="724" d="M546 0 C453 -156 271 -299 0 -428 C64 -479 184 -524 360 -563 C542 -366 650 -148 684 92 C649 253 586 390 495 505 L354 236 C457 154 521 75 546 0 L546 0 Z M414 -667 L288 -677 C256 -723 233 -792 218 -884 C197 -793 169 -725 134 -682 L7 -675 C26 -690 45 -708 62 -730 C117 -798 155 -881 176 -978 L260 -975 C275 -919 294 -864 316 -811 C338 -758 371 -710 414 -667 L414 -667 Z " />
<glyph glyph-name="uni0696" unicode="&#x696;" horiz-adv-x="724" d="M546 0 C453 -156 271 -299 0 -428 C64 -479 184 -524 360 -563 C542 -366 650 -148 684 92 C649 253 586 390 495 505 L354 236 C457 154 521 75 546 0 L546 0 Z M270 -924 L441 -775 L276 -624 L106 -771 L270 -924 Z M449 605 L620 754 L455 905 L285 758 L449 605 Z " />
<glyph glyph-name="uni0697" unicode="&#x697;" horiz-adv-x="724" d="M546 0 C453 -156 271 -299 0 -428 C64 -479 184 -524 360 -563 C542 -366 650 -148 684 92 C649 253 586 390 495 505 L354 236 C457 154 521 75 546 0 L546 0 Z M167 810 L304 673 L439 808 L574 673 L712 810 L574 948 L439 813 L304 948 L167 810 Z " />
<glyph glyph-name="uni0698" unicode="&#x698;" horiz-adv-x="724" d="M546 0 C453 -156 271 -299 0 -428 C64 -479 184 -524 360 -563 C542 -366 650 -148 684 92 C649 253 586 390 495 505 L354 236 C457 154 521 75 546 0 L546 0 Z M471 860 L600 987 L465 1105 L335 980 L471 860 Z M339 620 L469 748 L334 865 L202 738 L339 620 Z M611 624 L741 752 L604 869 L473 742 L611 624 Z " />
<glyph glyph-name="uni0699" unicode="&#x699;" horiz-adv-x="724" d="M546 0 C453 -156 271 -299 0 -428 C64 -479 184 -524 360 -563 C542 -366 650 -148 684 92 C649 253 586 390 495 505 L354 236 C457 154 521 75 546 0 L546 0 Z M324 1232 L455 1104 L592 1221 L461 1350 L324 1232 Z M320 764 L451 636 L588 754 L457 882 L320 764 Z M188 1003 L318 877 L455 994 L324 1123 L188 1003 Z M459 999 L592 874 L727 992 L597 1119 L459 999 Z " />
<glyph glyph-name="uni069A" unicode="&#x69a;" horiz-adv-x="2147" d="M1302 0 C1354 0 1403 20 1447 60 C1491 100 1518 157 1529 228 L1533 228 C1544 153 1573 95 1619 55 C1658 18 1704 0 1756 0 C1825 0 1902 52 1988 156 C1997 173 2013 210 2036 270 C2059 330 2077 394 2090 462 C2082 511 2065 566 2038 629 C2011 692 1987 734 1966 756 L1816 548 C1879 477 1919 409 1938 342 C1926 325 1902 310 1866 296 C1830 282 1792 274 1752 274 C1648 274 1596 336 1596 460 L1596 497 C1596 508 1597 520 1598 531 C1571 534 1553 535 1544 535 C1535 535 1523 533 1508 529 C1507 449 1487 387 1448 342 C1409 297 1358 274 1296 274 C1234 274 1183 291 1140 324 C1102 357 1052 423 989 523 L885 252 C928 222 968 170 1004 97 C1040 24 1061 -51 1068 -128 C1023 -170 951 -209 854 -245 C757 -281 658 -299 557 -299 C330 -299 216 -222 216 -69 C216 -18 224 30 239 74 C254 118 285 179 330 257 C315 281 295 293 272 293 C206 208 152 116 110 16 C68 -84 47 -169 47 -236 C47 -329 78 -406 139 -466 C216 -537 331 -572 486 -572 C601 -572 716 -550 830 -506 C944 -462 1039 -398 1118 -315 C1125 -296 1138 -243 1154 -156 C1170 -69 1178 2 1178 55 C1209 18 1250 0 1302 0 L1302 0 Z M1440 794 L1611 943 L1446 1094 L1276 947 L1440 794 Z M1454 -551 L1625 -402 L1460 -251 L1290 -398 L1454 -551 Z " />
<glyph glyph-name="uni069B" unicode="&#x69b;" horiz-adv-x="2147" d="M1302 0 C1354 0 1403 20 1447 60 C1491 100 1518 157 1529 228 L1533 228 C1544 153 1573 95 1619 55 C1658 18 1704 0 1756 0 C1825 0 1902 52 1988 156 C1997 173 2013 210 2036 270 C2059 330 2077 394 2090 462 C2082 511 2065 566 2038 629 C2011 692 1987 734 1966 756 L1816 548 C1879 477 1919 409 1938 342 C1926 325 1902 310 1866 296 C1830 282 1792 274 1752 274 C1648 274 1596 336 1596 460 L1596 497 C1596 508 1597 520 1598 531 C1571 534 1553 535 1544 535 C1535 535 1523 533 1508 529 C1507 449 1487 387 1448 342 C1409 297 1358 274 1296 274 C1234 274 1183 291 1140 324 C1102 357 1052 423 989 523 L885 252 C928 222 968 170 1004 97 C1040 24 1061 -51 1068 -128 C1023 -170 951 -209 854 -245 C757 -281 658 -299 557 -299 C330 -299 216 -222 216 -69 C216 -18 224 30 239 74 C254 118 285 179 330 257 C315 281 295 293 272 293 C206 208 152 116 110 16 C68 -84 47 -169 47 -236 C47 -329 78 -406 139 -466 C216 -537 331 -572 486 -572 C601 -572 716 -550 830 -506 C944 -462 1039 -398 1118 -315 C1125 -296 1138 -243 1154 -156 C1170 -69 1178 2 1178 55 C1209 18 1250 0 1302 0 L1302 0 Z M1405 -547 L1536 -675 L1672 -558 L1542 -429 L1405 -547 Z M1273 -308 L1403 -434 L1540 -318 L1408 -188 L1273 -308 Z M1544 -312 L1676 -438 L1812 -320 L1682 -192 L1544 -312 Z " />
<glyph glyph-name="uni069C" unicode="&#x69c;" horiz-adv-x="2147" d="M1302 0 C1354 0 1403 20 1447 60 C1491 100 1518 157 1529 228 L1533 228 C1544 153 1573 95 1619 55 C1658 18 1704 0 1756 0 C1825 0 1902 52 1988 156 C1997 173 2013 210 2036 270 C2059 330 2077 394 2090 462 C2082 511 2065 566 2038 629 C2011 692 1987 734 1966 756 L1816 548 C1879 477 1919 409 1938 342 C1926 325 1902 310 1866 296 C1830 282 1792 274 1752 274 C1648 274 1596 336 1596 460 L1596 497 C1596 508 1597 520 1598 531 C1571 534 1553 535 1544 535 C1535 535 1523 533 1508 529 C1507 449 1487 387 1448 342 C1409 297 1358 274 1296 274 C1234 274 1183 291 1140 324 C1102 357 1052 423 989 523 L885 252 C928 222 968 170 1004 97 C1040 24 1061 -51 1068 -128 C1023 -170 951 -209 854 -245 C757 -281 658 -299 557 -299 C330 -299 216 -222 216 -69 C216 -18 224 30 239 74 C254 118 285 179 330 257 C315 281 295 293 272 293 C206 208 152 116 110 16 C68 -84 47 -169 47 -236 C47 -329 78 -406 139 -466 C216 -537 331 -572 486 -572 C601 -572 716 -550 830 -506 C944 -462 1039 -398 1118 -315 C1125 -296 1138 -243 1154 -156 C1170 -69 1178 2 1178 55 C1209 18 1250 0 1302 0 L1302 0 Z M1415 -586 L1546 -714 L1682 -597 L1552 -468 L1415 -586 Z M1283 -347 L1413 -473 L1550 -357 L1418 -227 L1283 -347 Z M1554 -351 L1686 -477 L1822 -359 L1692 -231 L1554 -351 Z M1503 1006 L1632 1133 L1497 1251 L1367 1126 L1503 1006 Z M1371 766 L1501 894 L1366 1011 L1234 884 L1371 766 Z M1643 770 L1773 898 L1636 1015 L1505 888 L1643 770 Z " />
<glyph glyph-name="uni069D" unicode="&#x69d;" horiz-adv-x="2265" d="M2208 460 C2196 531 2165 591 2114 640 C2063 689 2000 713 1925 713 C1741 713 1536 567 1309 274 C1239 274 1186 288 1149 317 C1112 346 1059 414 989 523 L885 252 C928 222 968 170 1004 97 C1040 24 1061 -51 1068 -128 C1023 -170 951 -209 854 -245 C757 -281 658 -299 557 -299 C330 -299 216 -222 216 -69 C216 -18 224 30 239 74 C254 118 285 179 330 257 C315 281 295 293 272 293 C206 208 152 116 110 16 C68 -84 47 -169 47 -236 C47 -329 78 -406 139 -466 C216 -537 331 -572 486 -572 C601 -572 716 -550 830 -506 C944 -462 1039 -398 1118 -315 C1125 -296 1138 -243 1154 -156 C1170 -69 1178 2 1178 57 C1212 19 1295 0 1426 0 C1557 0 1693 36 1833 107 C1999 192 2124 309 2208 460 L2208 460 Z M1980 379 C1902 303 1755 265 1540 265 L1439 265 C1499 351 1562 416 1628 462 C1694 508 1751 531 1801 531 C1902 531 1962 480 1980 379 L1980 379 Z M1297 -344 L1434 -481 L1569 -346 L1704 -481 L1842 -344 L1704 -206 L1569 -341 L1434 -206 L1297 -344 Z " />
<glyph glyph-name="uni069E" unicode="&#x69e;" horiz-adv-x="2265" d="M2208 460 C2196 531 2165 591 2114 640 C2063 689 2000 713 1925 713 C1741 713 1536 567 1309 274 C1239 274 1186 288 1149 317 C1112 346 1059 414 989 523 L885 252 C928 222 968 170 1004 97 C1040 24 1061 -51 1068 -128 C1023 -170 951 -209 854 -245 C757 -281 658 -299 557 -299 C330 -299 216 -222 216 -69 C216 -18 224 30 239 74 C254 118 285 179 330 257 C315 281 295 293 272 293 C206 208 152 116 110 16 C68 -84 47 -169 47 -236 C47 -329 78 -406 139 -466 C216 -537 331 -572 486 -572 C601 -572 716 -550 830 -506 C944 -462 1039 -398 1118 -315 C1125 -296 1138 -243 1154 -156 C1170 -69 1178 2 1178 57 C1212 19 1295 0 1426 0 C1557 0 1693 36 1833 107 C1999 192 2124 309 2208 460 L2208 460 Z M1980 379 C1902 303 1755 265 1540 265 L1439 265 C1499 351 1562 416 1628 462 C1694 508 1751 531 1801 531 C1902 531 1962 480 1980 379 L1980 379 Z M1364 926 L1493 1053 L1358 1171 L1228 1046 L1364 926 Z M1232 686 L1362 814 L1227 931 L1095 804 L1232 686 Z M1504 690 L1634 818 L1497 935 L1366 808 L1504 690 Z " />
<glyph glyph-name="uni069F" unicode="&#x69f;" horiz-adv-x="1343" d="M619 1066 C552 1169 504 1265 474 1355 L295 1195 C367 1032 403 725 403 274 C249 274 154 311 118 385 C101 385 88 381 77 372 C114 203 149 98 183 59 C217 20 292 0 409 0 C608 0 786 42 940 124 C1094 206 1209 319 1285 462 C1275 530 1244 589 1193 639 C1140 688 1076 713 1002 713 C855 713 704 627 550 454 C550 784 546 988 539 1066 C550 1061 563 1058 579 1058 C595 1058 608 1061 619 1066 L619 1066 Z M1060 379 C981 303 834 265 619 265 L521 265 C578 349 642 417 713 468 C776 510 832 531 881 531 C982 531 1042 480 1060 379 L1060 379 Z M970 1262 L1099 1389 L964 1507 L834 1382 L970 1262 Z M838 1022 L968 1150 L833 1267 L701 1140 L838 1022 Z M1110 1026 L1240 1154 L1103 1271 L972 1144 L1110 1026 Z " />
<glyph glyph-name="uni06A0" unicode="&#x6a0;" horiz-adv-x="1111" d="M996 -501 L1081 -370 C1031 -383 945 -390 822 -390 C635 -390 494 -359 401 -297 C325 -246 287 -177 287 -90 C287 20 345 110 461 181 C577 252 727 294 910 309 L987 523 C924 509 806 480 633 437 C558 466 508 499 483 536 C458 573 446 625 446 694 C530 735 617 755 706 755 C755 755 816 742 891 715 C822 856 730 926 615 926 C483 926 358 824 240 619 C237 609 236 582 236 538 C236 494 253 447 288 398 C323 349 364 313 413 291 C169 133 47 -37 47 -220 C47 -324 88 -409 169 -474 C250 -539 376 -572 546 -572 C619 -572 705 -564 802 -548 C899 -532 964 -516 996 -501 L996 -501 Z M560 1324 L689 1451 L554 1569 L424 1444 L560 1324 Z M428 1084 L558 1212 L423 1329 L291 1202 L428 1084 Z M700 1088 L830 1216 L693 1333 L562 1206 L700 1088 Z " />
<glyph glyph-name="uni06A1" unicode="&#x6a1;" horiz-adv-x="1472" d="M262 641 C247 665 230 677 209 677 C202 677 196 675 189 670 C109 523 69 398 69 295 C69 192 104 118 174 73 C254 16 402 -12 617 -12 C832 -12 1002 0 1125 25 C1192 38 1277 73 1382 130 C1409 277 1422 415 1422 546 C1422 677 1394 782 1337 862 C1280 942 1201 981 1099 981 C959 887 889 721 889 484 L889 474 C960 429 1047 407 1150 407 C1209 407 1261 419 1308 444 C1309 427 1309 415 1310 406 C1311 397 1311 390 1311 388 C1311 386 1311 381 1310 372 C1309 363 1309 350 1308 334 C1241 294 1033 274 684 274 C495 274 367 286 302 310 C237 334 204 377 204 438 C204 499 223 566 262 641 L262 641 Z M1288 612 C1257 601 1215 596 1160 596 C1105 596 1054 612 1005 643 C1007 707 1027 750 1066 771 C1169 771 1243 718 1288 612 L1288 612 Z " />
<glyph glyph-name="uni06A2" unicode="&#x6a2;" horiz-adv-x="1472" d="M262 641 C247 665 230 677 209 677 C202 677 196 675 189 670 C109 523 69 398 69 295 C69 192 104 118 174 73 C254 16 402 -12 617 -12 C832 -12 1002 0 1125 25 C1192 38 1277 73 1382 130 C1409 277 1422 415 1422 546 C1422 677 1394 782 1337 862 C1280 942 1201 981 1099 981 C959 887 889 721 889 484 L889 474 C960 429 1047 407 1150 407 C1209 407 1261 419 1308 444 C1309 427 1309 415 1310 406 C1311 397 1311 390 1311 388 C1311 386 1311 381 1310 372 C1309 363 1309 350 1308 334 C1241 294 1033 274 684 274 C495 274 367 286 302 310 C237 334 204 377 204 438 C204 499 223 566 262 641 L262 641 Z M1288 612 C1257 601 1215 596 1160 596 C1105 596 1054 612 1005 643 C1007 707 1027 750 1066 771 C1169 771 1243 718 1288 612 L1288 612 Z M1143 -460 L1314 -311 L1149 -160 L979 -307 L1143 -460 Z " />
<glyph glyph-name="uni06A3" unicode="&#x6a3;" horiz-adv-x="1472" d="M262 641 C247 665 230 677 209 677 C202 677 196 675 189 670 C109 523 69 398 69 295 C69 192 104 118 174 73 C254 16 402 -12 617 -12 C832 -12 1002 0 1125 25 C1192 38 1277 73 1382 130 C1409 277 1422 415 1422 546 C1422 677 1394 782 1337 862 C1280 942 1201 981 1099 981 C959 887 889 721 889 484 L889 474 C960 429 1047 407 1150 407 C1209 407 1261 419 1308 444 C1309 427 1309 415 1310 406 C1311 397 1311 390 1311 388 C1311 386 1311 381 1310 372 C1309 363 1309 350 1308 334 C1241 294 1033 274 684 274 C495 274 367 286 302 310 C237 334 204 377 204 438 C204 499 223 566 262 641 L262 641 Z M1288 612 C1257 601 1215 596 1160 596 C1105 596 1054 612 1005 643 C1007 707 1027 750 1066 771 C1169 771 1243 718 1288 612 L1288 612 Z M1104 1118 L1275 1267 L1110 1418 L940 1271 L1104 1118 Z M1098 -452 L1269 -303 L1104 -152 L934 -299 L1098 -452 Z " />
<glyph glyph-name="uni06A4" unicode="&#x6a4;" horiz-adv-x="1472" d="M262 641 C247 665 230 677 209 677 C202 677 196 675 189 670 C109 523 69 398 69 295 C69 192 104 118 174 73 C254 16 402 -12 617 -12 C832 -12 1002 0 1125 25 C1192 38 1277 73 1382 130 C1409 277 1422 415 1422 546 C1422 677 1394 782 1337 862 C1280 942 1201 981 1099 981 C959 887 889 721 889 484 L889 474 C960 429 1047 407 1150 407 C1209 407 1261 419 1308 444 C1309 427 1309 415 1310 406 C1311 397 1311 390 1311 388 C1311 386 1311 381 1310 372 C1309 363 1309 350 1308 334 C1241 294 1033 274 684 274 C495 274 367 286 302 310 C237 334 204 377 204 438 C204 499 223 566 262 641 L262 641 Z M1288 612 C1257 601 1215 596 1160 596 C1105 596 1054 612 1005 643 C1007 707 1027 750 1066 771 C1169 771 1243 718 1288 612 L1288 612 Z M1110 1343 L1239 1470 L1104 1588 L974 1463 L1110 1343 Z M978 1103 L1108 1231 L973 1348 L841 1221 L978 1103 Z M1250 1107 L1380 1235 L1243 1352 L1112 1225 L1250 1107 Z " />
<glyph glyph-name="uni06A5" unicode="&#x6a5;" horiz-adv-x="1472" d="M262 641 C247 665 230 677 209 677 C202 677 196 675 189 670 C109 523 69 398 69 295 C69 192 104 118 174 73 C254 16 402 -12 617 -12 C832 -12 1002 0 1125 25 C1192 38 1277 73 1382 130 C1409 277 1422 415 1422 546 C1422 677 1394 782 1337 862 C1280 942 1201 981 1099 981 C959 887 889 721 889 484 L889 474 C960 429 1047 407 1150 407 C1209 407 1261 419 1308 444 C1309 427 1309 415 1310 406 C1311 397 1311 390 1311 388 C1311 386 1311 381 1310 372 C1309 363 1309 350 1308 334 C1241 294 1033 274 684 274 C495 274 367 286 302 310 C237 334 204 377 204 438 C204 499 223 566 262 641 L262 641 Z M1288 612 C1257 601 1215 596 1160 596 C1105 596 1054 612 1005 643 C1007 707 1027 750 1066 771 C1169 771 1243 718 1288 612 L1288 612 Z M887 -597 L1018 -725 L1154 -608 L1024 -479 L887 -597 Z M755 -358 L885 -484 L1022 -368 L890 -238 L755 -358 Z M1026 -362 L1158 -488 L1294 -370 L1164 -242 L1026 -362 Z " />
<glyph glyph-name="uni06A6" unicode="&#x6a6;" horiz-adv-x="1472" d="M262 641 C247 665 230 677 209 677 C202 677 196 675 189 670 C109 523 69 398 69 295 C69 192 104 118 174 73 C254 16 402 -12 617 -12 C832 -12 1002 0 1125 25 C1192 38 1277 73 1382 130 C1409 277 1422 415 1422 546 C1422 677 1394 782 1337 862 C1280 942 1201 981 1099 981 C959 887 889 721 889 484 L889 474 C960 429 1047 407 1150 407 C1209 407 1261 419 1308 444 C1309 427 1309 415 1310 406 C1311 397 1311 390 1311 388 C1311 386 1311 381 1310 372 C1309 363 1309 350 1308 334 C1241 294 1033 274 684 274 C495 274 367 286 302 310 C237 334 204 377 204 438 C204 499 223 566 262 641 L262 641 Z M1288 612 C1257 601 1215 596 1160 596 C1105 596 1054 612 1005 643 C1007 707 1027 750 1066 771 C1169 771 1243 718 1288 612 L1288 612 Z M963 1649 L1087 1528 L1217 1639 L1093 1761 L963 1649 Z M959 1207 L1083 1085 L1213 1197 L1089 1318 L959 1207 Z M834 1433 L957 1313 L1087 1424 L963 1546 L834 1433 Z M1091 1429 L1217 1311 L1345 1422 L1222 1543 L1091 1429 Z " />
<glyph glyph-name="uni06A7" unicode="&#x6a7;" horiz-adv-x="1327" d="M1092 348 C1069 336 1040 330 1005 330 C937 330 873 350 812 390 C812 403 814 417 819 432 C835 482 859 516 891 533 C940 527 983 506 1020 471 C1057 436 1081 395 1092 348 L1092 348 Z M1235 250 C1235 559 1134 722 932 739 C857 698 794 629 746 532 C698 435 674 328 674 210 C754 140 875 105 1036 105 L1118 128 C1126 82 1130 51 1130 34 C1130 17 1130 6 1129 0 C1058 -51 969 -96 861 -133 C750 -174 643 -195 542 -195 C323 -195 214 -105 214 75 C214 113 221 164 236 228 C251 292 268 340 287 373 C274 396 257 407 236 407 C229 407 222 406 214 403 C195 368 178 330 162 290 C98 127 66 -7 66 -111 C66 -215 102 -301 172 -368 C242 -435 344 -468 478 -468 C612 -468 750 -436 895 -373 C1010 -325 1107 -268 1186 -203 C1219 -71 1235 80 1235 250 L1235 250 Z M941 875 L1112 1024 L947 1175 L777 1028 L941 875 Z " />
<glyph glyph-name="uni06A8" unicode="&#x6a8;" horiz-adv-x="1327" d="M1092 348 C1069 336 1040 330 1005 330 C937 330 873 350 812 390 C812 403 814 417 819 432 C835 482 859 516 891 533 C940 527 983 506 1020 471 C1057 436 1081 395 1092 348 L1092 348 Z M1235 250 C1235 559 1134 722 932 739 C857 698 794 629 746 532 C698 435 674 328 674 210 C754 140 875 105 1036 105 L1118 128 C1126 82 1130 51 1130 34 C1130 17 1130 6 1129 0 C1058 -51 969 -96 861 -133 C750 -174 643 -195 542 -195 C323 -195 214 -105 214 75 C214 113 221 164 236 228 C251 292 268 340 287 373 C274 396 257 407 236 407 C229 407 222 406 214 403 C195 368 178 330 162 290 C98 127 66 -7 66 -111 C66 -215 102 -301 172 -368 C242 -435 344 -468 478 -468 C612 -468 750 -436 895 -373 C1010 -325 1107 -268 1186 -203 C1219 -71 1235 80 1235 250 L1235 250 Z M934 1097 L1063 1224 L928 1342 L798 1217 L934 1097 Z M802 857 L932 985 L797 1102 L665 975 L802 857 Z M1074 861 L1204 989 L1067 1106 L936 979 L1074 861 Z " />
<glyph glyph-name="uni06A9" unicode="&#x6a9;" horiz-adv-x="1660" d="M281 641 C264 665 249 677 236 677 C223 677 213 675 206 670 C126 521 86 392 86 283 C86 128 179 35 366 4 C428 -7 518 -12 636 -12 C754 -12 852 -4 932 12 C1067 40 1180 105 1272 206 C1275 222 1279 244 1282 272 C1285 300 1288 329 1292 362 C1299 461 1302 529 1302 568 C1283 623 1236 682 1160 742 C1084 802 1006 844 924 869 C975 897 1065 938 1194 994 C1323 1050 1431 1086 1518 1103 L1642 1373 C1562 1361 1432 1318 1250 1242 C1068 1166 936 1101 853 1048 C828 953 816 834 816 690 C1029 605 1156 496 1197 362 C1186 346 1170 333 1148 322 C1083 290 923 274 667 274 C411 274 268 307 237 373 C227 394 222 419 222 446 C222 506 242 571 281 641 L281 641 Z " />
<glyph glyph-name="uni06AA" unicode="&#x6aa;" horiz-adv-x="2445" d="M1042 718 C1042 751 1238 805 1630 880 C1686 891 1736 901 1780 910 L1906 1193 C1897 1190 1875 1183 1840 1174 C1313 1035 1013 925 938 844 C915 815 890 745 863 633 C866 556 941 511 1089 497 C1170 490 1298 484 1472 480 C1646 476 1781 472 1876 468 C1971 464 2034 452 2066 432 C2098 412 2116 377 2121 327 C1575 292 1104 274 708 274 L690 274 C395 274 248 345 248 486 C248 555 270 630 313 711 C300 734 282 745 260 745 C255 745 248 744 240 741 C155 589 112 455 112 339 C112 223 153 137 236 82 C319 27 450 0 629 0 L648 0 C966 0 1425 19 2026 58 C2105 63 2175 67 2237 70 L2324 283 L2343 339 C2356 374 2362 408 2362 441 C2362 502 2341 552 2298 589 C2255 626 2196 648 2120 654 C2044 660 1966 663 1884 665 C1802 667 1733 668 1676 670 C1619 672 1563 674 1506 675 C1449 676 1393 678 1338 680 C1283 682 1220 684 1150 687 C1080 690 1044 698 1044 711 C1043 714 1042 716 1042 718 L1042 718 Z " />
<glyph glyph-name="uni06AB" unicode="&#x6ab;" horiz-adv-x="1660" d="M281 641 C264 665 249 677 236 677 C223 677 213 675 206 670 C126 521 86 392 86 283 C86 128 179 35 366 4 C428 -7 518 -12 636 -12 C754 -12 852 -4 932 12 C1067 40 1180 105 1272 206 C1275 222 1279 244 1282 272 C1285 300 1288 329 1292 362 C1299 461 1302 529 1302 568 C1283 623 1236 682 1160 742 C1084 802 1006 844 924 869 C975 897 1065 938 1194 994 C1203 998 1213 1002 1222 1006 C1213 976 1208 944 1208 911 C1208 886 1218 862 1238 839 C1258 816 1290 804 1337 804 C1384 804 1426 827 1464 874 C1477 909 1484 940 1484 965 C1484 990 1480 1012 1473 1029 C1465 1049 1454 1067 1440 1084 C1467 1092 1494 1098 1518 1103 L1642 1373 C1562 1361 1432 1318 1250 1242 C1068 1166 936 1101 853 1048 C828 953 816 834 816 690 C1029 605 1156 496 1197 362 C1186 346 1170 333 1148 322 C1083 290 923 274 667 274 C411 274 268 307 237 373 C227 394 222 419 222 446 C222 506 242 571 281 641 L281 641 Z M1315 1040 C1376 1014 1409 984 1416 949 C1395 926 1371 915 1343 915 C1315 915 1295 920 1283 929 C1271 938 1265 949 1265 960 C1265 985 1282 1012 1315 1040 L1315 1040 Z " />
<glyph glyph-name="uni06AC" unicode="&#x6ac;" horiz-adv-x="1331" d="M1137 1355 L957 1195 C1031 1011 1068 717 1068 313 C867 273 683 253 518 253 C353 253 238 279 173 332 L73 55 C154 10 260 -12 392 -12 C524 -12 664 -1 810 21 C956 43 1055 66 1109 90 C1160 171 1195 253 1215 338 C1215 727 1211 970 1203 1066 C1216 1061 1228 1058 1242 1058 C1256 1058 1269 1061 1282 1066 C1231 1141 1183 1237 1137 1355 L1137 1355 Z M779 920 L837 1101 C797 1092 735 1069 650 1030 C565 991 507 959 476 936 L454 759 C496 753 539 739 582 716 C625 693 654 672 668 655 C609 626 534 612 441 612 L392 460 C416 460 443 463 472 468 C588 491 676 527 735 576 L756 751 C743 768 714 789 670 814 C629 841 592 859 559 867 C622 900 695 918 779 920 L779 920 Z M645 1214 L816 1363 L651 1514 L481 1367 L645 1214 Z " />
<glyph glyph-name="uni06AD" unicode="&#x6ad;" horiz-adv-x="1331" d="M1137 1355 L957 1195 C1031 1011 1068 717 1068 313 C867 273 683 253 518 253 C353 253 238 279 173 332 L73 55 C154 10 260 -12 392 -12 C524 -12 664 -1 810 21 C956 43 1055 66 1109 90 C1160 171 1195 253 1215 338 C1215 727 1211 970 1203 1066 C1216 1061 1228 1058 1242 1058 C1256 1058 1269 1061 1282 1066 C1231 1141 1183 1237 1137 1355 L1137 1355 Z M779 920 L837 1101 C797 1092 735 1069 650 1030 C565 991 507 959 476 936 L454 759 C496 753 539 739 582 716 C625 693 654 672 668 655 C609 626 534 612 441 612 L392 460 C416 460 443 463 472 468 C588 491 676 527 735 576 L756 751 C743 768 714 789 670 814 C629 841 592 859 559 867 C622 900 695 918 779 920 L779 920 Z M618 1412 L747 1539 L612 1657 L482 1532 L618 1412 Z M486 1172 L616 1300 L481 1417 L349 1290 L486 1172 Z M758 1176 L888 1304 L751 1421 L620 1294 L758 1176 Z " />
<glyph glyph-name="uni06AE" unicode="&#x6ae;" horiz-adv-x="1331" d="M1137 1355 L957 1195 C1031 1011 1068 717 1068 313 C867 273 683 253 518 253 C353 253 238 279 173 332 L73 55 C154 10 260 -12 392 -12 C524 -12 664 -1 810 21 C956 43 1055 66 1109 90 C1160 171 1195 253 1215 338 C1215 727 1211 970 1203 1066 C1216 1061 1228 1058 1242 1058 C1256 1058 1269 1061 1282 1066 C1231 1141 1183 1237 1137 1355 L1137 1355 Z M779 920 L837 1101 C797 1092 735 1069 650 1030 C565 991 507 959 476 936 L454 759 C496 753 539 739 582 716 C625 693 654 672 668 655 C609 626 534 612 441 612 L392 460 C416 460 443 463 472 468 C588 491 676 527 735 576 L756 751 C743 768 714 789 670 814 C629 841 592 859 559 867 C622 900 695 918 779 920 L779 920 Z M518 -549 L649 -677 L785 -560 L655 -431 L518 -549 Z M386 -310 L516 -436 L653 -320 L521 -190 L386 -310 Z M657 -314 L789 -440 L925 -322 L795 -194 L657 -314 Z " />
<glyph glyph-name="uni06AF" unicode="&#x6af;" horiz-adv-x="1660" d="M281 641 C264 665 249 677 236 677 C223 677 213 675 206 670 C126 521 86 392 86 283 C86 128 179 35 366 4 C428 -7 518 -12 636 -12 C754 -12 852 -4 932 12 C1067 40 1180 105 1272 206 C1293 339 1304 456 1304 555 C1288 584 1265 611 1236 636 C1151 711 1036 769 891 812 L891 816 C916 827 945 837 980 846 C1153 895 1336 925 1529 934 L1638 1180 C1579 1175 1462 1153 1288 1115 C1114 1077 967 1034 846 985 C841 971 834 936 825 878 C816 820 812 738 812 633 C947 580 1041 534 1094 496 C1147 458 1181 413 1197 362 C1186 346 1170 333 1148 322 C1083 290 923 274 667 274 C411 274 268 307 237 373 C227 394 222 419 222 446 C222 506 242 571 281 641 L281 641 Z M983 1236 L970 1137 C987 1144 1010 1151 1038 1160 C1226 1219 1393 1255 1538 1270 L1583 1370 C1363 1341 1163 1296 983 1236 L983 1236 Z " />
<glyph glyph-name="uni06B0" unicode="&#x6b0;" horiz-adv-x="1660" d="M983 1236 L970 1137 C987 1144 1010 1151 1038 1160 C1226 1219 1393 1255 1538 1270 L1583 1370 C1363 1341 1163 1296 983 1236 L983 1236 Z M281 641 C264 665 249 677 236 677 C223 677 213 675 206 670 C126 521 86 392 86 283 C86 128 179 35 366 4 C428 -7 518 -12 636 -12 C754 -12 852 -4 932 12 C1067 40 1180 105 1272 206 C1293 339 1304 456 1304 555 C1288 584 1265 611 1236 636 C1151 711 1036 769 891 812 L891 816 C916 827 945 837 980 846 C1072 872 1166 893 1264 908 C1246 867 1237 824 1237 778 C1237 753 1247 729 1267 706 C1287 683 1319 671 1366 671 C1413 671 1455 694 1493 741 C1506 776 1513 807 1513 832 C1513 857 1509 879 1502 896 C1497 908 1491 920 1483 931 C1498 932 1514 933 1529 934 L1638 1180 C1579 1175 1462 1153 1288 1115 C1114 1077 967 1034 846 985 C841 971 834 936 825 878 C816 820 812 738 812 633 C947 580 1041 534 1094 496 C1147 458 1181 413 1197 362 C1186 346 1170 333 1148 322 C1083 290 923 274 667 274 C411 274 268 307 237 373 C227 394 222 419 222 446 C222 506 242 571 281 641 L281 641 Z M1344 907 C1405 881 1438 851 1445 816 C1424 793 1400 782 1372 782 C1344 782 1324 787 1312 796 C1300 805 1294 816 1294 827 C1294 852 1311 879 1344 907 L1344 907 Z " />
<glyph glyph-name="uni06B1" unicode="&#x6b1;" horiz-adv-x="1660" d="M281 641 C264 665 249 677 236 677 C223 677 213 675 206 670 C126 521 86 392 86 283 C86 128 179 35 366 4 C428 -7 518 -12 636 -12 C754 -12 852 -4 932 12 C1067 40 1180 105 1272 206 C1293 339 1304 456 1304 555 C1288 584 1265 611 1236 636 C1151 711 1036 769 891 812 L891 816 C916 827 945 837 980 846 C1153 895 1336 925 1529 934 L1638 1180 C1579 1175 1462 1153 1288 1115 C1114 1077 967 1034 846 985 C841 971 834 936 825 878 C816 820 812 738 812 633 C947 580 1041 534 1094 496 C1147 458 1181 413 1197 362 C1186 346 1170 333 1148 322 C1083 290 923 274 667 274 C411 274 268 307 237 373 C227 394 222 419 222 446 C222 506 242 571 281 641 L281 641 Z M983 1236 L970 1137 C987 1144 1010 1151 1038 1160 C1226 1219 1393 1255 1538 1270 L1583 1370 C1363 1341 1163 1296 983 1236 L983 1236 Z M914 1511 L1051 1374 L1186 1509 L1321 1374 L1459 1511 L1321 1649 L1186 1514 L1051 1649 L914 1511 Z " />
<glyph glyph-name="uni06B2" unicode="&#x6b2;" horiz-adv-x="1660" d="M281 641 C264 665 249 677 236 677 C223 677 213 675 206 670 C126 521 86 392 86 283 C86 128 179 35 366 4 C428 -7 518 -12 636 -12 C754 -12 852 -4 932 12 C1067 40 1180 105 1272 206 C1293 339 1304 456 1304 555 C1288 584 1265 611 1236 636 C1151 711 1036 769 891 812 L891 816 C916 827 945 837 980 846 C1153 895 1336 925 1529 934 L1638 1180 C1579 1175 1462 1153 1288 1115 C1114 1077 967 1034 846 985 C841 971 834 936 825 878 C816 820 812 738 812 633 C947 580 1041 534 1094 496 C1147 458 1181 413 1197 362 C1186 346 1170 333 1148 322 C1083 290 923 274 667 274 C411 274 268 307 237 373 C227 394 222 419 222 446 C222 506 242 571 281 641 L281 641 Z M983 1236 L970 1137 C987 1144 1010 1151 1038 1160 C1226 1219 1393 1255 1538 1270 L1583 1370 C1363 1341 1163 1296 983 1236 L983 1236 Z M423 -295 L560 -432 L695 -297 L830 -432 L968 -295 L830 -157 L695 -292 L560 -157 L423 -295 Z " />
<glyph glyph-name="uni06B3" unicode="&#x6b3;" horiz-adv-x="1660" d="M281 641 C264 665 249 677 236 677 C223 677 213 675 206 670 C126 521 86 392 86 283 C86 128 179 35 366 4 C428 -7 518 -12 636 -12 C754 -12 852 -4 932 12 C1067 40 1180 105 1272 206 C1293 339 1304 456 1304 555 C1288 584 1265 611 1236 636 C1151 711 1036 769 891 812 L891 816 C916 827 945 837 980 846 C1153 895 1336 925 1529 934 L1638 1180 C1579 1175 1462 1153 1288 1115 C1114 1077 967 1034 846 985 C841 971 834 936 825 878 C816 820 812 738 812 633 C947 580 1041 534 1094 496 C1147 458 1181 413 1197 362 C1186 346 1170 333 1148 322 C1083 290 923 274 667 274 C411 274 268 307 237 373 C227 394 222 419 222 446 C222 506 242 571 281 641 L281 641 Z M983 1236 L970 1137 C987 1144 1010 1151 1038 1160 C1226 1219 1393 1255 1538 1270 L1583 1370 C1363 1341 1163 1296 983 1236 L983 1236 Z M703 -776 L846 -633 L695 -499 L552 -643 L703 -776 Z M699 -482 L842 -339 L692 -205 L548 -349 L699 -482 Z " />
<glyph glyph-name="uni06B4" unicode="&#x6b4;" horiz-adv-x="1660" d="M281 641 C264 665 249 677 236 677 C223 677 213 675 206 670 C126 521 86 392 86 283 C86 128 179 35 366 4 C428 -7 518 -12 636 -12 C754 -12 852 -4 932 12 C1067 40 1180 105 1272 206 C1293 339 1304 456 1304 555 C1288 584 1265 611 1236 636 C1151 711 1036 769 891 812 L891 816 C916 827 945 837 980 846 C1153 895 1336 925 1529 934 L1638 1180 C1579 1175 1462 1153 1288 1115 C1114 1077 967 1034 846 985 C841 971 834 936 825 878 C816 820 812 738 812 633 C947 580 1041 534 1094 496 C1147 458 1181 413 1197 362 C1186 346 1170 333 1148 322 C1083 290 923 274 667 274 C411 274 268 307 237 373 C227 394 222 419 222 446 C222 506 242 571 281 641 L281 641 Z M983 1236 L970 1137 C987 1144 1010 1151 1038 1160 C1226 1219 1393 1255 1538 1270 L1583 1370 C1363 1341 1163 1296 983 1236 L983 1236 Z M1230 1643 L1359 1770 L1224 1888 L1094 1763 L1230 1643 Z M1098 1403 L1228 1531 L1093 1648 L961 1521 L1098 1403 Z M1370 1407 L1500 1535 L1363 1652 L1232 1525 L1370 1407 Z " />
<glyph glyph-name="uni06B5" unicode="&#x6b5;" horiz-adv-x="1113" d="M987 1066 C994 1061 1006 1058 1022 1058 C1038 1058 1052 1061 1064 1066 C1055 1079 1033 1117 999 1178 C965 1239 938 1298 918 1355 L741 1195 C804 1039 841 759 852 356 L859 10 C712 -78 570 -122 431 -122 C360 -122 305 -106 266 -72 C227 -38 208 8 208 67 C208 97 213 138 224 188 C235 238 247 277 259 306 C242 325 218 334 189 334 C112 151 73 -6 73 -139 C73 -210 98 -270 149 -320 C200 -370 271 -396 364 -396 C457 -396 569 -365 701 -304 C782 -267 853 -222 914 -167 C955 -58 983 29 998 96 C998 641 994 965 987 1066 L987 1066 Z M990 1795 L864 1785 C832 1739 809 1670 794 1578 C773 1669 745 1737 710 1780 L583 1787 C602 1772 621 1754 638 1732 C693 1664 731 1581 752 1484 L836 1487 C851 1543 870 1598 892 1651 C914 1704 947 1752 990 1795 L990 1795 Z " />
<glyph glyph-name="uni06B6" unicode="&#x6b6;" horiz-adv-x="1113" d="M987 1066 C994 1061 1006 1058 1022 1058 C1038 1058 1052 1061 1064 1066 C1055 1079 1033 1117 999 1178 C965 1239 938 1298 918 1355 L741 1195 C804 1039 841 759 852 356 L859 10 C712 -78 570 -122 431 -122 C360 -122 305 -106 266 -72 C227 -38 208 8 208 67 C208 97 213 138 224 188 C235 238 247 277 259 306 C242 325 218 334 189 334 C112 151 73 -6 73 -139 C73 -210 98 -270 149 -320 C200 -370 271 -396 364 -396 C457 -396 569 -365 701 -304 C782 -267 853 -222 914 -167 C955 -58 983 29 998 96 C998 641 994 965 987 1066 L987 1066 Z M773 1466 L944 1615 L779 1766 L609 1619 L773 1466 Z " />
<glyph glyph-name="uni06B7" unicode="&#x6b7;" horiz-adv-x="1113" d="M987 1066 C994 1061 1006 1058 1022 1058 C1038 1058 1052 1061 1064 1066 C1055 1079 1033 1117 999 1178 C965 1239 938 1298 918 1355 L741 1195 C804 1039 841 759 852 356 L859 10 C712 -78 570 -122 431 -122 C360 -122 305 -106 266 -72 C227 -38 208 8 208 67 C208 97 213 138 224 188 C235 238 247 277 259 306 C242 325 218 334 189 334 C112 151 73 -6 73 -139 C73 -210 98 -270 149 -320 C200 -370 271 -396 364 -396 C457 -396 569 -365 701 -304 C782 -267 853 -222 914 -167 C955 -58 983 29 998 96 C998 641 994 965 987 1066 L987 1066 Z M780 1707 L909 1834 L774 1952 L644 1827 L780 1707 Z M648 1467 L778 1595 L643 1712 L511 1585 L648 1467 Z M920 1471 L1050 1599 L913 1716 L782 1589 L920 1471 Z " />
<glyph glyph-name="uni06B8" unicode="&#x6b8;" horiz-adv-x="1113" d="M987 1066 C994 1061 1006 1058 1022 1058 C1038 1058 1052 1061 1064 1066 C1055 1079 1033 1117 999 1178 C965 1239 938 1298 918 1355 L741 1195 C804 1039 841 759 852 356 L859 10 C712 -78 570 -122 431 -122 C360 -122 305 -106 266 -72 C227 -38 208 8 208 67 C208 97 213 138 224 188 C235 238 247 277 259 306 C242 325 218 334 189 334 C112 151 73 -6 73 -139 C73 -210 98 -270 149 -320 C200 -370 271 -396 364 -396 C457 -396 569 -365 701 -304 C782 -267 853 -222 914 -167 C955 -58 983 29 998 96 C998 641 994 965 987 1066 L987 1066 Z M332 -875 L463 -1003 L599 -886 L469 -757 L332 -875 Z M200 -636 L330 -762 L467 -646 L335 -516 L200 -636 Z M471 -640 L603 -766 L739 -648 L609 -520 L471 -640 Z " />
<glyph glyph-name="uni06B9" unicode="&#x6b9;" horiz-adv-x="1331" d="M584 -882 L755 -733 L590 -582 L420 -729 L584 -882 Z M1264 118 C1255 211 1229 312 1187 420 C1145 528 1103 606 1060 653 L957 366 C996 326 1034 269 1069 194 C1104 119 1128 55 1139 0 C1086 -45 1008 -84 907 -118 C806 -152 698 -169 584 -169 C359 -167 246 -91 246 60 C246 112 252 160 266 202 C280 244 311 306 360 387 C343 410 322 422 299 422 C234 337 180 246 139 147 C98 48 77 -36 77 -107 C77 -201 108 -277 169 -334 C246 -407 361 -443 514 -443 C631 -443 754 -420 885 -372 C1016 -324 1117 -266 1188 -199 C1239 -44 1264 61 1264 118 L1264 118 Z " />
<glyph glyph-name="uni06BA" unicode="&#x6ba;" horiz-adv-x="1331" d="M1264 118 C1255 211 1229 312 1187 420 C1145 528 1103 606 1060 653 L957 366 C996 326 1034 269 1069 194 C1104 119 1128 55 1139 0 C1086 -45 1008 -84 907 -118 C806 -152 698 -169 584 -169 C359 -167 246 -91 246 60 C246 112 252 160 266 202 C280 244 311 306 360 387 C343 410 322 422 299 422 C234 337 180 246 139 147 C98 48 77 -36 77 -107 C77 -201 108 -277 169 -334 C246 -407 361 -443 514 -443 C631 -443 754 -420 885 -372 C1016 -324 1117 -266 1188 -199 C1239 -44 1264 61 1264 118 L1264 118 Z " />
<glyph glyph-name="uni06BB" unicode="&#x6bb;" horiz-adv-x="1331" d="M1264 118 C1255 211 1229 312 1187 420 C1145 528 1103 606 1060 653 L957 366 C996 326 1034 269 1069 194 C1104 119 1128 55 1139 0 C1086 -45 1008 -84 907 -118 C806 -152 698 -169 584 -169 C359 -167 246 -91 246 60 C246 112 252 160 266 202 C280 244 311 306 360 387 C343 410 322 422 299 422 C234 337 180 246 139 147 C98 48 77 -36 77 -107 C77 -201 108 -277 169 -334 C246 -407 361 -443 514 -443 C631 -443 754 -420 885 -372 C1016 -324 1117 -266 1188 -199 C1239 -44 1264 61 1264 118 L1264 118 Z M823 746 C819 769 808 790 791 806 C774 822 753 830 728 830 C679 830 629 801 578 743 C578 856 577 924 574 947 C577 946 581 945 587 945 L593 945 C596 945 598 946 601 947 C578 980 561 1013 552 1044 L492 991 C517 934 529 831 529 682 C477 682 445 695 433 720 C427 720 422 718 419 715 C432 658 444 623 455 610 C466 597 498 591 550 591 C602 591 654 604 707 632 C760 660 798 698 823 746 L823 746 Z M747 718 C722 693 674 680 601 680 L568 680 C585 707 606 729 629 745 C652 761 672 769 688 769 C722 769 742 752 747 718 L747 718 Z " />
<glyph glyph-name="uni06BC" unicode="&#x6bc;" horiz-adv-x="1331" d="M537 -446 C598 -472 631 -502 638 -537 C617 -560 593 -571 565 -571 C537 -571 517 -566 505 -557 C493 -548 487 -537 487 -526 C487 -501 504 -474 537 -446 L537 -446 Z M695 -457 C691 -447 686 -437 680 -428 C746 -416 815 -398 885 -372 C1016 -324 1117 -266 1188 -199 C1239 -44 1264 61 1264 118 C1255 211 1229 312 1187 420 C1145 528 1103 606 1060 653 L957 366 C996 326 1034 269 1069 194 C1104 119 1128 55 1139 0 C1086 -45 1008 -84 907 -118 C806 -152 698 -169 584 -169 C359 -167 246 -91 246 60 C246 112 252 160 266 202 C280 244 311 306 360 387 C343 410 322 422 299 422 C234 337 180 246 139 147 C98 48 77 -36 77 -107 C77 -201 108 -277 169 -334 C236 -398 333 -433 458 -441 C440 -483 430 -528 430 -575 C430 -600 440 -624 460 -647 C480 -670 512 -682 559 -682 C606 -682 648 -659 686 -612 C699 -577 706 -546 706 -521 C706 -496 702 -474 695 -457 L695 -457 Z " />
<glyph glyph-name="uni06BD" unicode="&#x6bd;" horiz-adv-x="1331" d="M1264 118 C1255 211 1229 312 1187 420 C1145 528 1103 606 1060 653 L957 366 C996 326 1034 269 1069 194 C1104 119 1128 55 1139 0 C1086 -45 1008 -84 907 -118 C806 -152 698 -169 584 -169 C359 -167 246 -91 246 60 C246 112 252 160 266 202 C280 244 311 306 360 387 C343 410 322 422 299 422 C234 337 180 246 139 147 C98 48 77 -36 77 -107 C77 -201 108 -277 169 -334 C246 -407 361 -443 514 -443 C631 -443 754 -420 885 -372 C1016 -324 1117 -266 1188 -199 C1239 -44 1264 61 1264 118 L1264 118 Z M670 814 L799 941 L664 1059 L534 934 L670 814 Z M538 574 L668 702 L533 819 L401 692 L538 574 Z M810 578 L940 706 L803 823 L672 696 L810 578 Z " />
<glyph glyph-name="uni06BE" unicode="&#x6be;" horiz-adv-x="1277" d="M1211 417 C1211 435 1209 460 1205 492 C1081 655 871 828 574 1011 L543 732 C584 709 627 684 672 657 L672 653 C539 645 444 579 387 454 C402 377 435 320 486 283 C482 282 471 277 453 270 C435 263 385 254 304 242 L139 224 C139 217 143 201 152 178 C187 85 245 26 324 0 L342 0 C413 0 472 12 522 35 C572 58 629 99 694 156 C786 100 914 63 1077 45 C1096 66 1113 89 1128 116 C1183 215 1210 315 1211 417 L1211 417 Z M899 519 L903 523 C1004 446 1071 385 1103 342 C1103 294 1091 257 1068 232 C1056 234 1023 242 969 258 C915 274 873 292 843 313 C888 350 910 395 910 450 C910 475 906 498 899 519 L899 519 Z M569 466 C604 550 674 593 781 596 C803 547 814 508 814 480 C814 452 805 425 786 402 C767 379 743 363 715 352 C646 377 598 415 569 466 L569 466 Z " />
<glyph glyph-name="uni06BF" unicode="&#x6bf;" horiz-adv-x="1300" d="M1189 -503 L1270 -372 C1175 -384 1070 -390 953 -390 C512 -390 291 -269 291 -26 C291 73 328 165 401 248 C434 286 470 319 510 346 C550 373 604 399 671 425 C738 451 807 464 878 464 C949 464 996 462 1020 458 L1176 704 C1100 695 998 690 870 690 C742 690 601 717 448 771 C385 793 342 804 316 804 C290 804 263 782 235 738 C207 694 159 585 90 411 C108 397 131 390 159 390 C182 455 204 499 224 523 C243 541 263 550 283 550 C303 550 340 540 394 522 C448 504 508 491 572 484 L580 484 L580 480 C414 399 285 301 192 186 C99 71 53 -44 53 -157 C53 -308 117 -419 246 -492 C345 -545 460 -572 593 -572 C800 -572 998 -549 1189 -503 L1189 -503 Z M691 -95 L822 -223 L958 -106 L828 23 L691 -95 Z M559 144 L689 18 L826 134 L694 264 L559 144 Z M830 140 L962 14 L1098 132 L968 260 L830 140 Z M680 913 L851 1062 L686 1213 L516 1066 L680 913 Z " />
<glyph glyph-name="uni06C0" unicode="&#x6c0;" horiz-adv-x="767" d="M86 96 C152 23 252 -13 385 -13 L391 -13 C424 -13 501 10 623 57 C662 146 689 251 704 370 C693 509 657 610 594 674 C531 738 418 792 257 837 L179 582 L191 580 L242 570 C145 464 93 306 86 96 L86 96 Z M596 283 C539 244 474 224 400 224 C326 224 265 248 218 295 C240 414 279 497 334 542 C499 501 586 415 596 283 L596 283 Z M479 1204 L552 1277 C527 1320 493 1342 450 1342 C389 1342 327 1301 264 1220 C252 1205 246 1185 247 1160 C247 1135 263 1110 296 1086 L259 1055 L259 951 C313 999 412 1041 557 1078 L587 1189 C550 1180 494 1165 418 1142 C399 1149 382 1160 369 1174 C356 1188 348 1202 347 1217 C360 1236 380 1245 409 1245 C438 1245 461 1231 479 1204 L479 1204 Z " />
<glyph glyph-name="uni06C1" unicode="&#x6c1;" horiz-adv-x="832" d="M840 274 L822 274 C786 274 755 281 729 294 C656 331 606 444 581 631 C386 576 245 501 156 406 L86 109 L128 92 C193 211 324 299 519 357 C529 306 541 258 554 215 C599 72 692 0 832 0 L842 0 C862 0 872 11 872 32 L872 242 C872 263 861 274 840 274 L840 274 Z " />
<glyph glyph-name="uni06C2" unicode="&#x6c2;" horiz-adv-x="832" d="M840 274 L822 274 C786 274 755 281 729 294 C656 331 606 444 581 631 C386 576 245 501 156 406 L86 109 L128 92 C193 211 324 299 519 357 C529 306 541 258 554 215 C599 72 692 0 832 0 L842 0 C862 0 872 11 872 32 L872 242 C872 263 861 274 840 274 L840 274 Z M400 948 L473 1021 C448 1064 414 1086 371 1086 C310 1086 248 1045 185 964 C173 949 167 929 168 904 C168 879 184 854 217 830 L180 799 L180 695 C234 743 333 785 478 822 L508 933 C471 924 415 909 339 886 C320 893 303 904 290 918 C277 932 269 946 268 961 C281 980 301 989 330 989 C359 989 382 975 400 948 L400 948 Z " />
<glyph glyph-name="uni06C3" unicode="&#x6c3;" horiz-adv-x="832" d="M840 274 L822 274 C786 274 755 281 729 294 C656 331 606 444 581 631 C386 576 245 501 156 406 L86 109 L128 92 C193 211 324 299 519 357 C529 306 541 258 554 215 C599 72 692 0 832 0 L842 0 C862 0 872 11 872 32 L872 242 C872 263 861 274 840 274 L840 274 Z M39 937 L176 800 L311 935 L446 800 L584 937 L446 1075 L311 940 L176 1075 L39 937 Z " />
</font>
</svg>
